<!-- viewBox="0 0 809.21 200" -->
<svg xmlns="http://www.w3.org/2000/svg" height="40" width="40" viewBox="0 0 200 200"><defs><style></style></defs><title>beams_full-logo</title><g fill="#2ae9aa"><path d="M85.58,40.65l-15.75,9.1a.79.79,0,0,0-.4.69V190a.39.39,0,0,0,.2.35L86.18,200a.4.4,0,0,0,.6-.35V41.35A.81.81,0,0,0,85.58,40.65Z"></path><path d="M104.14,189.58v-18a.81.81,0,0,1,1.2-.7l15,8.64a.8.8,0,0,1,0,1.39l-15.55,9A.39.39,0,0,1,104.14,189.58Z"></path><path d="M104.14,150V131.54a.8.8,0,0,1,1.2-.7L155,159.52a.8.8,0,0,1,0,1.38l-16,9.21a.36.36,0,0,1-.4,0L104.34,150.3A.4.4,0,0,1,104.14,150Z"></path><path d="M104.14,109.87V91.45a.8.8,0,0,1,1.2-.69l67.83,39.16a.8.8,0,0,1,.4.69v18.88a.41.41,0,0,1-.61.35l-68.62-39.62A.4.4,0,0,1,104.14,109.87Z"></path><path d="M104.14,69.79V51.37a.81.81,0,0,1,1.2-.7l67.83,39.16a.83.83,0,0,1,.4.7v18.88a.41.41,0,0,1-.61.35L104.34,70.14A.42.42,0,0,1,104.14,69.79Z"></path><path d="M50.87,60.7,35.11,69.79a.82.82,0,0,0-.4.69V170a.43.43,0,0,0,.2.35l16.56,9.55a.39.39,0,0,0,.6-.34V61.39A.8.8,0,0,0,50.87,60.7Z"></path><path d="M16.15,80.74.4,89.83a.81.81,0,0,0-.4.7V150a.4.4,0,0,0,.2.34l16.56,9.56a.4.4,0,0,0,.6-.34V81.43A.8.8,0,0,0,16.15,80.74Z"></path><path d="M0,69.33V50.44a.79.79,0,0,1,.4-.69L86.38.11a.77.77,0,0,1,.8,0l86,49.64a.82.82,0,0,1,.4.69V69.33a.4.4,0,0,1-.61.34L87,20a.41.41,0,0,0-.4,0L.6,69.67A.39.39,0,0,1,0,69.33Z"></path></g></svg>