<svg width="349" height="298" viewBox="0 0 349 298" fill="none" xmlns="http://www.w3.org/2000/svg"><path fill-rule="evenodd" clip-rule="evenodd" d="M3.19 7.36a1.6 1.6 0 1 1-3.19 0 1.6 1.6 0 0 1 3.19 0z" fill="#FF8473"></path><path fill-rule="evenodd" clip-rule="evenodd" d="M21.35 7.36a1.9 1.9 0 1 1-3.8 0 1.9 1.9 0 0 1 3.8 0z" fill="#FF8473"></path><path fill-rule="evenodd" clip-rule="evenodd" d="M39.5 7.36a2.2 2.2 0 1 1-4.4 0 2.2 2.2 0 0 1 4.4 0z" fill="#FF8473"></path><path fill-rule="evenodd" clip-rule="evenodd" d="M57.66 7.36a2.5 2.5 0 1 1-5 0 2.5 2.5 0 0 1 5 0z" fill="#FF8473"></path><path fill-rule="evenodd" clip-rule="evenodd" d="M75.82 7.36a2.8 2.8 0 1 1-5.62 0 2.8 2.8 0 0 1 5.62 0z" fill="#FF8473"></path><path fill-rule="evenodd" clip-rule="evenodd" d="M93.98 7.36a3.11 3.11 0 1 1-6.23 0 3.11 3.11 0 0 1 6.23 0z" fill="#FF8473"></path><path fill-rule="evenodd" clip-rule="evenodd" d="M112.13 7.36a3.41 3.41 0 1 1-6.83 0 3.41 3.41 0 0 1 6.83 0z" fill="#FF8473"></path><path fill-rule="evenodd" clip-rule="evenodd" d="M130.29 7.36a3.72 3.72 0 1 1-7.44 0 3.72 3.72 0 0 1 7.44 0z" fill="#FF8473"></path><path fill-rule="evenodd" clip-rule="evenodd" d="M148.45 7.36a4.02 4.02 0 1 1-8.04 0 4.02 4.02 0 0 1 8.04 0z" fill="#FF8473"></path><path fill-rule="evenodd" clip-rule="evenodd" d="M166.6 7.36a4.32 4.32 0 1 1-8.64 0 4.32 4.32 0 0 1 8.64 0z" fill="#FF8473"></path><path fill-rule="evenodd" clip-rule="evenodd" d="M184.76 7.36a4.63 4.63 0 1 1-9.26 0 4.63 4.63 0 0 1 9.26 0z" fill="#FF8473"></path><path fill-rule="evenodd" clip-rule="evenodd" d="M202.91 7.36a4.93 4.93 0 1 1-9.85 0 4.93 4.93 0 0 1 9.85 0z" fill="#FF8473"></path><path fill-rule="evenodd" clip-rule="evenodd" d="M221.07 7.36a5.23 5.23 0 1 1-10.46 0 5.23 5.23 0 0 1 10.46 0z" fill="#FF8473"></path><path fill-rule="evenodd" clip-rule="evenodd" d="M239.23 7.36a5.53 5.53 0 1 1-11.07 0 5.53 5.53 0 0 1 11.07 0z" fill="#FF8473"></path><path fill-rule="evenodd" clip-rule="evenodd" d="M257.38 7.36a5.84 5.84 0 1 1-11.67 0 5.84 5.84 0 0 1 11.67 0z" fill="#FF8473"></path><path fill-rule="evenodd" clip-rule="evenodd" d="M275.54 7.36a6.14 6.14 0 1 1-12.28 0 6.14 6.14 0 0 1 12.28 0z" fill="#FF8473"></path><path fill-rule="evenodd" clip-rule="evenodd" d="M293.7 7.36a6.44 6.44 0 1 1-12.9 0 6.44 6.44 0 0 1 12.9 0z" fill="#FF8473"></path><path fill-rule="evenodd" clip-rule="evenodd" d="M311.86 7.36a6.75 6.75 0 1 1-13.5 0 6.75 6.75 0 0 1 13.5 0z" fill="#FF8473"></path><path fill-rule="evenodd" clip-rule="evenodd" d="M330.01 7.36a7.05 7.05 0 1 1-14.1 0 7.05 7.05 0 0 1 14.1 0z" fill="#FF8473"></path><path fill-rule="evenodd" clip-rule="evenodd" d="M348.17 7.36a7.35 7.35 0 1 1-14.7 0 7.35 7.35 0 0 1 14.7 0z" fill="#FF8473"></path><path fill-rule="evenodd" clip-rule="evenodd" d="M345.59 23.96a1.6 1.6 0 1 1 3.19 0 1.6 1.6 0 0 1-3.2 0z" fill="#FF8473"></path><path fill-rule="evenodd" clip-rule="evenodd" d="M327.43 23.96a1.9 1.9 0 1 1 3.8 0 1.9 1.9 0 0 1-3.8 0z" fill="#FF8473"></path><path fill-rule="evenodd" clip-rule="evenodd" d="M309.27 23.96a2.2 2.2 0 1 1 4.4 0 2.2 2.2 0 0 1-4.4 0z" fill="#FF8473"></path><path fill-rule="evenodd" clip-rule="evenodd" d="M291.12 23.96a2.5 2.5 0 1 1 5 0 2.5 2.5 0 0 1-5 0z" fill="#FF8473"></path><path fill-rule="evenodd" clip-rule="evenodd" d="M272.96 23.96a2.8 2.8 0 1 1 5.61 0 2.8 2.8 0 0 1-5.61 0z" fill="#FF8473"></path><path fill-rule="evenodd" clip-rule="evenodd" d="M254.8 23.96a3.11 3.11 0 1 1 6.22 0 3.11 3.11 0 0 1-6.22 0z" fill="#FF8473"></path><path fill-rule="evenodd" clip-rule="evenodd" d="M236.65 23.96a3.41 3.41 0 1 1 6.82 0 3.41 3.41 0 0 1-6.82 0z" fill="#FF8473"></path><path fill-rule="evenodd" clip-rule="evenodd" d="M218.49 23.96a3.72 3.72 0 1 1 7.43 0 3.72 3.72 0 0 1-7.43 0z" fill="#FF8473"></path><path fill-rule="evenodd" clip-rule="evenodd" d="M200.33 23.96a4.02 4.02 0 1 1 8.04 0 4.02 4.02 0 0 1-8.04 0z" fill="#FF8473"></path><path fill-rule="evenodd" clip-rule="evenodd" d="M182.18 23.96a4.32 4.32 0 1 1 8.64 0 4.32 4.32 0 0 1-8.64 0z" fill="#FF8473"></path><path fill-rule="evenodd" clip-rule="evenodd" d="M164.02 23.96a4.63 4.63 0 1 1 9.25 0 4.63 4.63 0 0 1-9.25 0z" fill="#FF8473"></path><path fill-rule="evenodd" clip-rule="evenodd" d="M145.86 23.96a4.93 4.93 0 1 1 9.86 0 4.93 4.93 0 0 1-9.86 0z" fill="#FF8473"></path><path fill-rule="evenodd" clip-rule="evenodd" d="M127.7 23.96a5.23 5.23 0 1 1 10.47 0 5.23 5.23 0 0 1-10.47 0z" fill="#FF8473"></path><path fill-rule="evenodd" clip-rule="evenodd" d="M109.55 23.96a5.53 5.53 0 1 1 11.07 0 5.53 5.53 0 0 1-11.07 0z" fill="#FF8473"></path><path fill-rule="evenodd" clip-rule="evenodd" d="M91.4 23.96a5.84 5.84 0 1 1 11.67 0 5.84 5.84 0 0 1-11.68 0z" fill="#FF8473"></path><path fill-rule="evenodd" clip-rule="evenodd" d="M73.23 23.96a6.14 6.14 0 1 1 12.29 0 6.14 6.14 0 0 1-12.29 0z" fill="#FF8473"></path><path fill-rule="evenodd" clip-rule="evenodd" d="M55.08 23.96a6.44 6.44 0 1 1 12.89 0 6.44 6.44 0 0 1-12.9 0z" fill="#FF8473"></path><path fill-rule="evenodd" clip-rule="evenodd" d="M36.92 23.96a6.75 6.75 0 1 1 13.5 0 6.75 6.75 0 0 1-13.5 0z" fill="#FF8473"></path><path fill-rule="evenodd" clip-rule="evenodd" d="M18.77 23.96a7.05 7.05 0 1 1 14.1 0 7.05 7.05 0 0 1-14.1 0z" fill="#FF8473"></path><path fill-rule="evenodd" clip-rule="evenodd" d="M.6 23.96a7.35 7.35 0 1 1 14.71 0 7.35 7.35 0 0 1-14.7 0z" fill="#FF8473"></path><path fill-rule="evenodd" clip-rule="evenodd" d="M330.01 40.57a7.05 7.05 0 1 1-14.1 0 7.05 7.05 0 0 1 14.1 0z" fill="#FF8473"></path><path fill-rule="evenodd" clip-rule="evenodd" d="M348.17 40.57a7.35 7.35 0 1 1-14.7 0 7.35 7.35 0 0 1 14.7 0z" fill="#FF8473"></path><path fill-rule="evenodd" clip-rule="evenodd" d="M345.59 57.18a1.6 1.6 0 1 1 3.19 0 1.6 1.6 0 0 1-3.2 0z" fill="#FF8473"></path><path fill-rule="evenodd" clip-rule="evenodd" d="M327.43 57.18a1.9 1.9 0 1 1 3.8 0 1.9 1.9 0 0 1-3.8 0z" fill="#FF8473"></path><path fill-rule="evenodd" clip-rule="evenodd" d="M330.01 73.78a7.05 7.05 0 1 1-14.1 0 7.05 7.05 0 0 1 14.1 0z" fill="#FF8473"></path><path fill-rule="evenodd" clip-rule="evenodd" d="M348.17 73.78a7.35 7.35 0 1 1-14.7 0 7.35 7.35 0 0 1 14.7 0z" fill="#FF8473"></path><path fill-rule="evenodd" clip-rule="evenodd" d="M345.59 90.39a1.6 1.6 0 1 1 3.19 0 1.6 1.6 0 0 1-3.2 0z" fill="#FF8473"></path><path fill-rule="evenodd" clip-rule="evenodd" d="M327.43 90.39a1.9 1.9 0 1 1 3.8 0 1.9 1.9 0 0 1-3.8 0z" fill="#FF8473"></path><path fill-rule="evenodd" clip-rule="evenodd" d="M330.01 107a7.05 7.05 0 1 1-14.1 0 7.05 7.05 0 0 1 14.1 0z" fill="#FF8473"></path><path fill-rule="evenodd" clip-rule="evenodd" d="M348.17 107a7.36 7.36 0 1 1-14.71 0 7.36 7.36 0 0 1 14.71 0z" fill="#FF8473"></path><path fill-rule="evenodd" clip-rule="evenodd" d="M345.59 123.6a1.6 1.6 0 1 1 3.19 0 1.6 1.6 0 0 1-3.2 0z" fill="#FF8473"></path><path fill-rule="evenodd" clip-rule="evenodd" d="M327.43 123.6a1.9 1.9 0 1 1 3.8 0 1.9 1.9 0 0 1-3.8 0z" fill="#FF8473"></path><path fill-rule="evenodd" clip-rule="evenodd" d="M330.01 140.2a7.05 7.05 0 1 1-14.1 0 7.05 7.05 0 0 1 14.1 0z" fill="#FF8473"></path><path fill-rule="evenodd" clip-rule="evenodd" d="M348.17 140.2a7.35 7.35 0 1 1-14.7 0 7.35 7.35 0 0 1 14.7 0z" fill="#FF8473"></path><path fill-rule="evenodd" clip-rule="evenodd" d="M345.59 156.81a1.6 1.6 0 1 1 3.19 0 1.6 1.6 0 0 1-3.2 0z" fill="#FF8473"></path><path fill-rule="evenodd" clip-rule="evenodd" d="M327.43 156.81a1.9 1.9 0 1 1 3.8 0 1.9 1.9 0 0 1-3.8 0z" fill="#FF8473"></path><path fill-rule="evenodd" clip-rule="evenodd" d="M330.01 173.42a7.05 7.05 0 1 1-14.1 0 7.05 7.05 0 0 1 14.1 0z" fill="#FF8473"></path><path fill-rule="evenodd" clip-rule="evenodd" d="M348.17 173.42a7.35 7.35 0 1 1-14.7 0 7.35 7.35 0 0 1 14.7 0z" fill="#FF8473"></path><path fill-rule="evenodd" clip-rule="evenodd" d="M345.59 190.03a1.6 1.6 0 1 1 3.19 0 1.6 1.6 0 0 1-3.2 0z" fill="#FF8473"></path><path fill-rule="evenodd" clip-rule="evenodd" d="M327.43 190.03a1.9 1.9 0 1 1 3.8 0 1.9 1.9 0 0 1-3.8 0z" fill="#FF8473"></path><path fill-rule="evenodd" clip-rule="evenodd" d="M330.01 206.64a7.05 7.05 0 1 1-14.1 0 7.05 7.05 0 0 1 14.1 0z" fill="#FF8473"></path><path fill-rule="evenodd" clip-rule="evenodd" d="M348.17 206.64a7.35 7.35 0 1 1-14.71 0 7.35 7.35 0 0 1 14.71 0z" fill="#FF8473"></path><path fill-rule="evenodd" clip-rule="evenodd" d="M345.59 223.24a1.6 1.6 0 1 1 3.19 0 1.6 1.6 0 0 1-3.2 0z" fill="#FF8473"></path><path fill-rule="evenodd" clip-rule="evenodd" d="M327.43 223.24a1.9 1.9 0 1 1 3.8 0 1.9 1.9 0 0 1-3.8 0z" fill="#FF8473"></path><path fill-rule="evenodd" clip-rule="evenodd" d="M330.01 239.85a7.05 7.05 0 1 1-14.1 0 7.05 7.05 0 0 1 14.1 0z" fill="#FF8473"></path><path fill-rule="evenodd" clip-rule="evenodd" d="M348.17 239.85a7.36 7.36 0 1 1-14.71 0 7.36 7.36 0 0 1 14.71 0z" fill="#FF8473"></path><path fill-rule="evenodd" clip-rule="evenodd" d="M345.59 256.46a1.6 1.6 0 1 1 3.19 0 1.6 1.6 0 0 1-3.2 0z" fill="#FF8473"></path><path fill-rule="evenodd" clip-rule="evenodd" d="M327.43 256.46a1.9 1.9 0 1 1 3.8 0 1.9 1.9 0 0 1-3.8 0z" fill="#FF8473"></path><path fill-rule="evenodd" clip-rule="evenodd" d="M3.19 273.06a1.6 1.6 0 1 1-3.2 0 1.6 1.6 0 0 1 3.2 0z" fill="#FF8473"></path><path fill-rule="evenodd" clip-rule="evenodd" d="M21.35 273.06a1.9 1.9 0 1 1-3.8 0 1.9 1.9 0 0 1 3.8 0z" fill="#FF8473"></path><path fill-rule="evenodd" clip-rule="evenodd" d="M39.5 273.06a2.2 2.2 0 1 1-4.4 0 2.2 2.2 0 0 1 4.4 0z" fill="#FF8473"></path><path fill-rule="evenodd" clip-rule="evenodd" d="M57.66 273.06a2.5 2.5 0 1 1-5 0 2.5 2.5 0 0 1 5 0z" fill="#FF8473"></path><path fill-rule="evenodd" clip-rule="evenodd" d="M75.82 273.06a2.8 2.8 0 1 1-5.62 0 2.8 2.8 0 0 1 5.62 0z" fill="#FF8473"></path><path fill-rule="evenodd" clip-rule="evenodd" d="M93.98 273.06a3.11 3.11 0 1 1-6.22 0 3.11 3.11 0 0 1 6.22 0z" fill="#FF8473"></path><path fill-rule="evenodd" clip-rule="evenodd" d="M112.13 273.06a3.41 3.41 0 1 1-6.83 0 3.41 3.41 0 0 1 6.83 0z" fill="#FF8473"></path><path fill-rule="evenodd" clip-rule="evenodd" d="M130.29 273.06a3.72 3.72 0 1 1-7.44 0 3.72 3.72 0 0 1 7.44 0z" fill="#FF8473"></path><path fill-rule="evenodd" clip-rule="evenodd" d="M148.45 273.06a4.02 4.02 0 1 1-8.04 0 4.02 4.02 0 0 1 8.04 0z" fill="#FF8473"></path><path fill-rule="evenodd" clip-rule="evenodd" d="M166.6 273.06a4.32 4.32 0 1 1-8.64 0 4.32 4.32 0 0 1 8.64 0z" fill="#FF8473"></path><path fill-rule="evenodd" clip-rule="evenodd" d="M184.76 273.06a4.63 4.63 0 1 1-9.26 0 4.63 4.63 0 0 1 9.26 0z" fill="#FF8473"></path><path fill-rule="evenodd" clip-rule="evenodd" d="M202.91 273.06a4.93 4.93 0 1 1-9.85 0 4.93 4.93 0 0 1 9.85 0z" fill="#FF8473"></path><path fill-rule="evenodd" clip-rule="evenodd" d="M221.07 273.06a5.23 5.23 0 1 1-10.46 0 5.23 5.23 0 0 1 10.46 0z" fill="#FF8473"></path><path fill-rule="evenodd" clip-rule="evenodd" d="M239.23 273.06a5.53 5.53 0 1 1-11.07 0 5.53 5.53 0 0 1 11.07 0z" fill="#FF8473"></path><path fill-rule="evenodd" clip-rule="evenodd" d="M257.38 273.06a5.84 5.84 0 1 1-11.67 0 5.84 5.84 0 0 1 11.67 0z" fill="#FF8473"></path><path fill-rule="evenodd" clip-rule="evenodd" d="M275.54 273.06a6.14 6.14 0 1 1-12.28 0 6.14 6.14 0 0 1 12.28 0z" fill="#FF8473"></path><path fill-rule="evenodd" clip-rule="evenodd" d="M293.7 273.06a6.44 6.44 0 1 1-12.9 0 6.44 6.44 0 0 1 12.9 0z" fill="#FF8473"></path><path fill-rule="evenodd" clip-rule="evenodd" d="M311.86 273.06a6.75 6.75 0 1 1-13.5 0 6.75 6.75 0 0 1 13.5 0z" fill="#FF8473"></path><path fill-rule="evenodd" clip-rule="evenodd" d="M330.01 273.06a7.05 7.05 0 1 1-14.1 0 7.05 7.05 0 0 1 14.1 0z" fill="#FF8473"></path><path fill-rule="evenodd" clip-rule="evenodd" d="M348.17 273.06a7.35 7.35 0 1 1-14.7 0 7.35 7.35 0 0 1 14.7 0z" fill="#FF8473"></path><path fill-rule="evenodd" clip-rule="evenodd" d="M345.59 289.67a1.6 1.6 0 1 1 3.19 0 1.6 1.6 0 0 1-3.2 0z" fill="#FF8473"></path><path fill-rule="evenodd" clip-rule="evenodd" d="M327.43 289.67a1.9 1.9 0 1 1 3.8 0 1.9 1.9 0 0 1-3.8 0z" fill="#FF8473"></path><path fill-rule="evenodd" clip-rule="evenodd" d="M309.27 289.67a2.2 2.2 0 1 1 4.4 0 2.2 2.2 0 0 1-4.4 0z" fill="#FF8473"></path><path fill-rule="evenodd" clip-rule="evenodd" d="M291.12 289.67a2.5 2.5 0 1 1 5 0 2.5 2.5 0 0 1-5 0z" fill="#FF8473"></path><path fill-rule="evenodd" clip-rule="evenodd" d="M272.96 289.67a2.8 2.8 0 1 1 5.61 0 2.8 2.8 0 0 1-5.61 0z" fill="#FF8473"></path><path fill-rule="evenodd" clip-rule="evenodd" d="M254.8 289.67a3.11 3.11 0 1 1 6.22 0 3.11 3.11 0 0 1-6.22 0z" fill="#FF8473"></path><path fill-rule="evenodd" clip-rule="evenodd" d="M236.65 289.67a3.41 3.41 0 1 1 6.82 0 3.41 3.41 0 0 1-6.82 0z" fill="#FF8473"></path><path fill-rule="evenodd" clip-rule="evenodd" d="M218.49 289.67a3.72 3.72 0 1 1 7.43 0 3.72 3.72 0 0 1-7.43 0z" fill="#FF8473"></path><path fill-rule="evenodd" clip-rule="evenodd" d="M200.33 289.67a4.02 4.02 0 1 1 8.04 0 4.02 4.02 0 0 1-8.04 0z" fill="#FF8473"></path><path fill-rule="evenodd" clip-rule="evenodd" d="M182.18 289.67a4.32 4.32 0 1 1 8.64 0 4.32 4.32 0 0 1-8.64 0z" fill="#FF8473"></path><path fill-rule="evenodd" clip-rule="evenodd" d="M164.02 289.67a4.63 4.63 0 1 1 9.25 0 4.63 4.63 0 0 1-9.25 0z" fill="#FF8473"></path><path fill-rule="evenodd" clip-rule="evenodd" d="M145.86 289.67a4.93 4.93 0 1 1 9.86 0 4.93 4.93 0 0 1-9.86 0z" fill="#FF8473"></path><path fill-rule="evenodd" clip-rule="evenodd" d="M127.7 289.67a5.23 5.23 0 1 1 10.47 0 5.23 5.23 0 0 1-10.47 0z" fill="#FF8473"></path><path fill-rule="evenodd" clip-rule="evenodd" d="M109.55 289.67a5.53 5.53 0 1 1 11.07 0 5.53 5.53 0 0 1-11.07 0z" fill="#FF8473"></path><path fill-rule="evenodd" clip-rule="evenodd" d="M91.4 289.67a5.84 5.84 0 1 1 11.67 0 5.84 5.84 0 0 1-11.68 0z" fill="#FF8473"></path><path fill-rule="evenodd" clip-rule="evenodd" d="M73.23 289.67a6.14 6.14 0 1 1 12.29 0 6.14 6.14 0 0 1-12.29 0z" fill="#FF8473"></path><path fill-rule="evenodd" clip-rule="evenodd" d="M55.08 289.67a6.44 6.44 0 1 1 12.89 0 6.44 6.44 0 0 1-12.9 0z" fill="#FF8473"></path><path fill-rule="evenodd" clip-rule="evenodd" d="M36.92 289.67a6.75 6.75 0 1 1 13.5 0 6.75 6.75 0 0 1-13.5 0z" fill="#FF8473"></path><path fill-rule="evenodd" clip-rule="evenodd" d="M18.77 289.67a7.05 7.05 0 1 1 14.1 0 7.05 7.05 0 0 1-14.1 0z" fill="#FF8473"></path><path fill-rule="evenodd" clip-rule="evenodd" d="M.6 289.67a7.35 7.35 0 1 1 14.71 0 7.35 7.35 0 0 1-14.7 0z" fill="#FF8473"></path></svg>