<svg width="348" height="304" viewBox="0 0 348 304" fill="none" xmlns="http://www.w3.org/2000/svg"><path clip-rule="evenodd" d="M346.5 16.84l-15 8.66V10.16l15-8.66v15.34z" stroke="#6A52FF" stroke-width="3" stroke-linecap="round" stroke-linejoin="round"></path><path clip-rule="evenodd" d="M316.5 16.84l15 8.66V10.16l-15-8.66v15.34z" stroke="#6A52FF" stroke-width="3" stroke-linecap="round" stroke-linejoin="round"></path><path clip-rule="evenodd" d="M346.5 32.18l-15 8.66V25.5l15-8.66v15.34z" stroke="#6A52FF" stroke-width="3" stroke-linecap="round" stroke-linejoin="round"></path><path clip-rule="evenodd" d="M316.5 32.18l15 8.66V25.5l-15-8.66v15.34z" stroke="#6A52FF" stroke-width="3" stroke-linecap="round" stroke-linejoin="round"></path><path clip-rule="evenodd" d="M346.5 47.5l-15 8.67V40.83l15-8.66V47.5z" stroke="#6A52FF" stroke-width="3" stroke-linecap="round" stroke-linejoin="round"></path><path clip-rule="evenodd" d="M316.5 47.5l15 8.67V40.83l-15-8.66V47.5z" stroke="#6A52FF" stroke-width="3" stroke-linecap="round" stroke-linejoin="round"></path><path clip-rule="evenodd" d="M346.5 62.85l-15 8.66V56.17l15-8.66v15.34z" stroke="#6A52FF" stroke-width="3" stroke-linecap="round" stroke-linejoin="round"></path><path clip-rule="evenodd" d="M316.5 62.85l15 8.66V56.17l-15-8.66v15.34z" stroke="#6A52FF" stroke-width="3" stroke-linecap="round" stroke-linejoin="round"></path><path clip-rule="evenodd" d="M346.5 78.18l-15 8.66V71.5l15-8.66v15.34z" stroke="#6A52FF" stroke-width="3" stroke-linecap="round" stroke-linejoin="round"></path><path clip-rule="evenodd" d="M316.5 78.18l15 8.66V71.5l-15-8.66v15.34z" stroke="#6A52FF" stroke-width="3" stroke-linecap="round" stroke-linejoin="round"></path><path clip-rule="evenodd" d="M346.5 93.52l-15 8.66V86.84l15-8.66v15.34z" stroke="#6A52FF" stroke-width="3" stroke-linecap="round" stroke-linejoin="round"></path><path clip-rule="evenodd" d="M316.5 93.52l15 8.66V86.84l-15-8.66v15.34z" stroke="#6A52FF" stroke-width="3" stroke-linecap="round" stroke-linejoin="round"></path><path clip-rule="evenodd" d="M346.5 108.86l-15 8.66v-15.34l15-8.66v15.34z" stroke="#6A52FF" stroke-width="3" stroke-linecap="round" stroke-linejoin="round"></path><path clip-rule="evenodd" d="M316.5 108.86l15 8.66v-15.34l-15-8.66v15.34z" stroke="#6A52FF" stroke-width="3" stroke-linecap="round" stroke-linejoin="round"></path><path clip-rule="evenodd" d="M346.5 124.2l-15 8.66v-15.34l15-8.66v15.34z" stroke="#6A52FF" stroke-width="3" stroke-linecap="round" stroke-linejoin="round"></path><path clip-rule="evenodd" d="M316.5 124.2l15 8.66v-15.34l-15-8.66v15.34z" stroke="#6A52FF" stroke-width="3" stroke-linecap="round" stroke-linejoin="round"></path><path clip-rule="evenodd" d="M346.5 139.52l-15 8.66v-15.34l15-8.66v15.34z" stroke="#6A52FF" stroke-width="3" stroke-linecap="round" stroke-linejoin="round"></path><path clip-rule="evenodd" d="M316.5 139.52l15 8.66v-15.34l-15-8.66v15.34z" stroke="#6A52FF" stroke-width="3" stroke-linecap="round" stroke-linejoin="round"></path><path clip-rule="evenodd" d="M346.5 154.86l-15 8.66v-15.34l15-8.66v15.34z" stroke="#6A52FF" stroke-width="3" stroke-linecap="round" stroke-linejoin="round"></path><path clip-rule="evenodd" d="M316.5 154.86l15 8.66v-15.34l-15-8.66v15.34z" stroke="#6A52FF" stroke-width="3" stroke-linecap="round" stroke-linejoin="round"></path><path clip-rule="evenodd" d="M346.5 170.19l-15 8.66V163.5l15-8.66v15.34z" stroke="#6A52FF" stroke-width="3" stroke-linecap="round" stroke-linejoin="round"></path><path clip-rule="evenodd" d="M316.5 170.19l15 8.66V163.5l-15-8.66v15.34z" stroke="#6A52FF" stroke-width="3" stroke-linecap="round" stroke-linejoin="round"></path><path clip-rule="evenodd" d="M346.5 185.53l-15 8.66v-15.34l15-8.66v15.34z" stroke="#6A52FF" stroke-width="3" stroke-linecap="round" stroke-linejoin="round"></path><path clip-rule="evenodd" d="M316.5 185.53l15 8.66v-15.34l-15-8.66v15.34z" stroke="#6A52FF" stroke-width="3" stroke-linecap="round" stroke-linejoin="round"></path><path clip-rule="evenodd" d="M346.5 200.86l-15 8.66v-15.34l15-8.66v15.34z" stroke="#6A52FF" stroke-width="3" stroke-linecap="round" stroke-linejoin="round"></path><path clip-rule="evenodd" d="M316.5 200.86l15 8.66v-15.34l-15-8.66v15.34z" stroke="#6A52FF" stroke-width="3" stroke-linecap="round" stroke-linejoin="round"></path><path clip-rule="evenodd" d="M346.5 216.2l-15 8.66v-15.34l15-8.66v15.34z" stroke="#6A52FF" stroke-width="3" stroke-linecap="round" stroke-linejoin="round"></path><path clip-rule="evenodd" d="M316.5 216.2l15 8.66v-15.34l-15-8.66v15.34z" stroke="#6A52FF" stroke-width="3" stroke-linecap="round" stroke-linejoin="round"></path><path clip-rule="evenodd" d="M346.5 231.54l-15 8.66v-15.34l15-8.66v15.34z" stroke="#6A52FF" stroke-width="3" stroke-linecap="round" stroke-linejoin="round"></path><path clip-rule="evenodd" d="M316.5 231.54l15 8.66v-15.34l-15-8.66v15.34z" stroke="#6A52FF" stroke-width="3" stroke-linecap="round" stroke-linejoin="round"></path><path clip-rule="evenodd" d="M346.5 246.88l-15 8.66V240.2l15-8.66v15.34z" stroke="#6A52FF" stroke-width="3" stroke-linecap="round" stroke-linejoin="round"></path><path clip-rule="evenodd" d="M316.5 246.88l15 8.66V240.2l-15-8.66v15.34z" stroke="#6A52FF" stroke-width="3" stroke-linecap="round" stroke-linejoin="round"></path><path clip-rule="evenodd" d="M346.5 262.22l-15 8.66v-15.34l15-8.66v15.34z" stroke="#6A52FF" stroke-width="3" stroke-linecap="round" stroke-linejoin="round"></path><path clip-rule="evenodd" d="M316.5 262.22l15 8.66v-15.34l-15-8.66v15.34z" stroke="#6A52FF" stroke-width="3" stroke-linecap="round" stroke-linejoin="round"></path><path clip-rule="evenodd" d="M316.5 16.84l-15 8.66V10.16l15-8.66v15.34z" stroke="#6A52FF" stroke-width="3" stroke-linecap="round" stroke-linejoin="round"></path><path clip-rule="evenodd" d="M286.5 16.84l15 8.66V10.16l-15-8.66v15.34z" stroke="#6A52FF" stroke-width="3" stroke-linecap="round" stroke-linejoin="round"></path><path clip-rule="evenodd" d="M316.5 32.18l-15 8.66V25.5l15-8.66v15.34z" stroke="#6A52FF" stroke-width="3" stroke-linecap="round" stroke-linejoin="round"></path><path clip-rule="evenodd" d="M286.5 32.18l15 8.66V25.5l-15-8.66v15.34z" stroke="#6A52FF" stroke-width="3" stroke-linecap="round" stroke-linejoin="round"></path><path clip-rule="evenodd" d="M286.5 16.84l-15 8.66V10.16l15-8.66v15.34z" stroke="#6A52FF" stroke-width="3" stroke-linecap="round" stroke-linejoin="round"></path><path clip-rule="evenodd" d="M256.5 16.84l15 8.66V10.16l-15-8.66v15.34z" stroke="#6A52FF" stroke-width="3" stroke-linecap="round" stroke-linejoin="round"></path><path clip-rule="evenodd" d="M286.5 32.18l-15 8.66V25.5l15-8.66v15.34z" stroke="#6A52FF" stroke-width="3" stroke-linecap="round" stroke-linejoin="round"></path><path clip-rule="evenodd" d="M256.5 32.18l15 8.66V25.5l-15-8.66v15.34z" stroke="#6A52FF" stroke-width="3" stroke-linecap="round" stroke-linejoin="round"></path><path clip-rule="evenodd" d="M256.5 16.84l-15 8.66V10.16l15-8.66v15.34z" stroke="#6A52FF" stroke-width="3" stroke-linecap="round" stroke-linejoin="round"></path><path clip-rule="evenodd" d="M226.5 16.84l15 8.66V10.16l-15-8.66v15.34z" stroke="#6A52FF" stroke-width="3" stroke-linecap="round" stroke-linejoin="round"></path><path clip-rule="evenodd" d="M256.5 32.18l-15 8.66V25.5l15-8.66v15.34z" stroke="#6A52FF" stroke-width="3" stroke-linecap="round" stroke-linejoin="round"></path><path clip-rule="evenodd" d="M226.5 32.18l15 8.66V25.5l-15-8.66v15.34z" stroke="#6A52FF" stroke-width="3" stroke-linecap="round" stroke-linejoin="round"></path><path clip-rule="evenodd" d="M226.5 16.84l-15 8.66V10.16l15-8.66v15.34z" stroke="#6A52FF" stroke-width="3" stroke-linecap="round" stroke-linejoin="round"></path><path clip-rule="evenodd" d="M196.5 16.84l15 8.66V10.16l-15-8.66v15.34z" stroke="#6A52FF" stroke-width="3" stroke-linecap="round" stroke-linejoin="round"></path><path clip-rule="evenodd" d="M226.5 32.18l-15 8.66V25.5l15-8.66v15.34z" stroke="#6A52FF" stroke-width="3" stroke-linecap="round" stroke-linejoin="round"></path><path clip-rule="evenodd" d="M196.5 32.18l15 8.66V25.5l-15-8.66v15.34z" stroke="#6A52FF" stroke-width="3" stroke-linecap="round" stroke-linejoin="round"></path><path clip-rule="evenodd" d="M196.5 16.84l-15 8.66V10.16l15-8.66v15.34z" stroke="#6A52FF" stroke-width="3" stroke-linecap="round" stroke-linejoin="round"></path><path clip-rule="evenodd" d="M166.5 16.84l15 8.66V10.16l-15-8.66v15.34z" stroke="#6A52FF" stroke-width="3" stroke-linecap="round" stroke-linejoin="round"></path><path clip-rule="evenodd" d="M196.5 32.18l-15 8.66V25.5l15-8.66v15.34z" stroke="#6A52FF" stroke-width="3" stroke-linecap="round" stroke-linejoin="round"></path><path clip-rule="evenodd" d="M166.5 32.18l15 8.66V25.5l-15-8.66v15.34z" stroke="#6A52FF" stroke-width="3" stroke-linecap="round" stroke-linejoin="round"></path><path clip-rule="evenodd" d="M166.5 16.84l-15 8.66V10.16l15-8.66v15.34z" stroke="#6A52FF" stroke-width="3" stroke-linecap="round" stroke-linejoin="round"></path><path clip-rule="evenodd" d="M136.5 16.84l15 8.66V10.16l-15-8.66v15.34z" stroke="#6A52FF" stroke-width="3" stroke-linecap="round" stroke-linejoin="round"></path><path clip-rule="evenodd" d="M166.5 32.18l-15 8.66V25.5l15-8.66v15.34z" stroke="#6A52FF" stroke-width="3" stroke-linecap="round" stroke-linejoin="round"></path><path clip-rule="evenodd" d="M136.5 32.18l15 8.66V25.5l-15-8.66v15.34z" stroke="#6A52FF" stroke-width="3" stroke-linecap="round" stroke-linejoin="round"></path><path clip-rule="evenodd" d="M136.5 16.84l-15 8.66V10.16l15-8.66v15.34z" stroke="#6A52FF" stroke-width="3" stroke-linecap="round" stroke-linejoin="round"></path><path clip-rule="evenodd" d="M106.5 16.84l15 8.66V10.16l-15-8.66v15.34z" stroke="#6A52FF" stroke-width="3" stroke-linecap="round" stroke-linejoin="round"></path><path clip-rule="evenodd" d="M136.5 32.18l-15 8.66V25.5l15-8.66v15.34z" stroke="#6A52FF" stroke-width="3" stroke-linecap="round" stroke-linejoin="round"></path><path clip-rule="evenodd" d="M106.5 32.18l15 8.66V25.5l-15-8.66v15.34z" stroke="#6A52FF" stroke-width="3" stroke-linecap="round" stroke-linejoin="round"></path><path clip-rule="evenodd" d="M106.5 16.84l-15 8.66V10.16l15-8.66v15.34z" stroke="#6A52FF" stroke-width="3" stroke-linecap="round" stroke-linejoin="round"></path><path clip-rule="evenodd" d="M76.5 16.84l15 8.66V10.16l-15-8.66v15.34z" stroke="#6A52FF" stroke-width="3" stroke-linecap="round" stroke-linejoin="round"></path><path clip-rule="evenodd" d="M106.5 32.18l-15 8.66V25.5l15-8.66v15.34z" stroke="#6A52FF" stroke-width="3" stroke-linecap="round" stroke-linejoin="round"></path><path clip-rule="evenodd" d="M76.5 32.18l15 8.66V25.5l-15-8.66v15.34z" stroke="#6A52FF" stroke-width="3" stroke-linecap="round" stroke-linejoin="round"></path><path clip-rule="evenodd" d="M76.5 16.84l-15 8.66V10.16l15-8.66v15.34z" stroke="#6A52FF" stroke-width="3" stroke-linecap="round" stroke-linejoin="round"></path><path clip-rule="evenodd" d="M46.5 16.84l15 8.66V10.16l-15-8.66v15.34z" stroke="#6A52FF" stroke-width="3" stroke-linecap="round" stroke-linejoin="round"></path><path clip-rule="evenodd" d="M76.5 32.18l-15 8.66V25.5l15-8.66v15.34z" stroke="#6A52FF" stroke-width="3" stroke-linecap="round" stroke-linejoin="round"></path><path clip-rule="evenodd" d="M46.5 32.18l15 8.66V25.5l-15-8.66v15.34z" stroke="#6A52FF" stroke-width="3" stroke-linecap="round" stroke-linejoin="round"></path><path clip-rule="evenodd" d="M46.5 16.84l-15 8.66V10.16l15-8.66v15.34z" stroke="#6A52FF" stroke-width="3" stroke-linecap="round" stroke-linejoin="round"></path><path clip-rule="evenodd" d="M16.5 16.84l15 8.66V10.16l-15-8.66v15.34z" stroke="#6A52FF" stroke-width="3" stroke-linecap="round" stroke-linejoin="round"></path><path clip-rule="evenodd" d="M46.5 32.18l-15 8.66V25.5l15-8.66v15.34z" stroke="#6A52FF" stroke-width="3" stroke-linecap="round" stroke-linejoin="round"></path><path clip-rule="evenodd" d="M16.5 32.18l15 8.66V25.5l-15-8.66v15.34z" stroke="#6A52FF" stroke-width="3" stroke-linecap="round" stroke-linejoin="round"></path><path clip-rule="evenodd" d="M16.5 16.84l-15 8.66V10.16l15-8.66v15.34z" stroke="#6A52FF" stroke-width="3" stroke-linecap="round" stroke-linejoin="round"></path><path clip-rule="evenodd" d="M16.5 32.18l-15 8.66V25.5l15-8.66v15.34z" stroke="#6A52FF" stroke-width="3" stroke-linecap="round" stroke-linejoin="round"></path><path clip-rule="evenodd" d="M346.5 277.57l-15 8.66V270.9l15-8.66v15.34z" stroke="#6A52FF" stroke-width="3" stroke-linecap="round" stroke-linejoin="round"></path><path clip-rule="evenodd" d="M316.5 277.57l15 8.66V270.9l-15-8.66v15.34z" stroke="#6A52FF" stroke-width="3" stroke-linecap="round" stroke-linejoin="round"></path><path clip-rule="evenodd" d="M346.5 292.92l-15 8.65v-15.33l15-8.67v15.35z" stroke="#6A52FF" stroke-width="3" stroke-linecap="round" stroke-linejoin="round"></path><path clip-rule="evenodd" d="M316.5 292.92l15 8.65v-15.33l-15-8.67v15.35z" stroke="#6A52FF" stroke-width="3" stroke-linecap="round" stroke-linejoin="round"></path><path clip-rule="evenodd" d="M316.5 277.57l-15 8.66V270.9l15-8.66v15.34z" stroke="#6A52FF" stroke-width="3" stroke-linecap="round" stroke-linejoin="round"></path><path clip-rule="evenodd" d="M286.5 277.57l15 8.66V270.9l-15-8.66v15.34z" stroke="#6A52FF" stroke-width="3" stroke-linecap="round" stroke-linejoin="round"></path><path clip-rule="evenodd" d="M316.5 292.92l-15 8.65v-15.33l15-8.67v15.35z" stroke="#6A52FF" stroke-width="3" stroke-linecap="round" stroke-linejoin="round"></path><path clip-rule="evenodd" d="M286.5 292.92l15 8.65v-15.33l-15-8.67v15.35z" stroke="#6A52FF" stroke-width="3" stroke-linecap="round" stroke-linejoin="round"></path><path clip-rule="evenodd" d="M286.5 277.57l-15 8.66V270.9l15-8.66v15.34z" stroke="#6A52FF" stroke-width="3" stroke-linecap="round" stroke-linejoin="round"></path><path clip-rule="evenodd" d="M256.5 277.57l15 8.66V270.9l-15-8.66v15.34z" stroke="#6A52FF" stroke-width="3" stroke-linecap="round" stroke-linejoin="round"></path><path clip-rule="evenodd" d="M286.5 292.92l-15 8.65v-15.33l15-8.67v15.35z" stroke="#6A52FF" stroke-width="3" stroke-linecap="round" stroke-linejoin="round"></path><path clip-rule="evenodd" d="M256.5 292.92l15 8.65v-15.33l-15-8.67v15.35z" stroke="#6A52FF" stroke-width="3" stroke-linecap="round" stroke-linejoin="round"></path><path clip-rule="evenodd" d="M256.5 277.57l-15 8.66V270.9l15-8.66v15.34z" stroke="#6A52FF" stroke-width="3" stroke-linecap="round" stroke-linejoin="round"></path><path clip-rule="evenodd" d="M226.5 277.57l15 8.66V270.9l-15-8.66v15.34z" stroke="#6A52FF" stroke-width="3" stroke-linecap="round" stroke-linejoin="round"></path><path clip-rule="evenodd" d="M256.5 292.92l-15 8.65v-15.33l15-8.67v15.35z" stroke="#6A52FF" stroke-width="3" stroke-linecap="round" stroke-linejoin="round"></path><path clip-rule="evenodd" d="M226.5 292.92l15 8.65v-15.33l-15-8.67v15.35z" stroke="#6A52FF" stroke-width="3" stroke-linecap="round" stroke-linejoin="round"></path><path clip-rule="evenodd" d="M226.5 277.57l-15 8.66V270.9l15-8.66v15.34z" stroke="#6A52FF" stroke-width="3" stroke-linecap="round" stroke-linejoin="round"></path><path clip-rule="evenodd" d="M196.5 277.57l15 8.66V270.9l-15-8.66v15.34z" stroke="#6A52FF" stroke-width="3" stroke-linecap="round" stroke-linejoin="round"></path><path clip-rule="evenodd" d="M226.5 292.92l-15 8.65v-15.33l15-8.67v15.35z" stroke="#6A52FF" stroke-width="3" stroke-linecap="round" stroke-linejoin="round"></path><path clip-rule="evenodd" d="M196.5 292.92l15 8.65v-15.33l-15-8.67v15.35z" stroke="#6A52FF" stroke-width="3" stroke-linecap="round" stroke-linejoin="round"></path><path clip-rule="evenodd" d="M196.5 277.57l-15 8.66V270.9l15-8.66v15.34z" stroke="#6A52FF" stroke-width="3" stroke-linecap="round" stroke-linejoin="round"></path><path clip-rule="evenodd" d="M166.5 277.57l15 8.66V270.9l-15-8.66v15.34z" stroke="#6A52FF" stroke-width="3" stroke-linecap="round" stroke-linejoin="round"></path><path clip-rule="evenodd" d="M196.5 292.92l-15 8.65v-15.33l15-8.67v15.35z" stroke="#6A52FF" stroke-width="3" stroke-linecap="round" stroke-linejoin="round"></path><path clip-rule="evenodd" d="M166.5 292.92l15 8.65v-15.33l-15-8.67v15.35z" stroke="#6A52FF" stroke-width="3" stroke-linecap="round" stroke-linejoin="round"></path><path clip-rule="evenodd" d="M166.5 277.57l-15 8.66V270.9l15-8.66v15.34z" stroke="#6A52FF" stroke-width="3" stroke-linecap="round" stroke-linejoin="round"></path><path clip-rule="evenodd" d="M136.5 277.57l15 8.66V270.9l-15-8.66v15.34z" stroke="#6A52FF" stroke-width="3" stroke-linecap="round" stroke-linejoin="round"></path><path clip-rule="evenodd" d="M166.5 292.92l-15 8.65v-15.33l15-8.67v15.35z" stroke="#6A52FF" stroke-width="3" stroke-linecap="round" stroke-linejoin="round"></path><path clip-rule="evenodd" d="M136.5 292.92l15 8.65v-15.33l-15-8.67v15.35z" stroke="#6A52FF" stroke-width="3" stroke-linecap="round" stroke-linejoin="round"></path><path clip-rule="evenodd" d="M136.5 277.57l-15 8.66V270.9l15-8.66v15.34z" stroke="#6A52FF" stroke-width="3" stroke-linecap="round" stroke-linejoin="round"></path><path clip-rule="evenodd" d="M106.5 277.57l15 8.66V270.9l-15-8.66v15.34z" stroke="#6A52FF" stroke-width="3" stroke-linecap="round" stroke-linejoin="round"></path><path clip-rule="evenodd" d="M136.5 292.92l-15 8.65v-15.33l15-8.67v15.35z" stroke="#6A52FF" stroke-width="3" stroke-linecap="round" stroke-linejoin="round"></path><path clip-rule="evenodd" d="M106.5 292.92l15 8.65v-15.33l-15-8.67v15.35z" stroke="#6A52FF" stroke-width="3" stroke-linecap="round" stroke-linejoin="round"></path><path clip-rule="evenodd" d="M106.5 277.57l-15 8.66V270.9l15-8.66v15.34z" stroke="#6A52FF" stroke-width="3" stroke-linecap="round" stroke-linejoin="round"></path><path clip-rule="evenodd" d="M76.5 277.57l15 8.66V270.9l-15-8.66v15.34z" stroke="#6A52FF" stroke-width="3" stroke-linecap="round" stroke-linejoin="round"></path><path clip-rule="evenodd" d="M106.5 292.92l-15 8.65v-15.33l15-8.67v15.35z" stroke="#6A52FF" stroke-width="3" stroke-linecap="round" stroke-linejoin="round"></path><path clip-rule="evenodd" d="M76.5 292.92l15 8.65v-15.33l-15-8.67v15.35z" stroke="#6A52FF" stroke-width="3" stroke-linecap="round" stroke-linejoin="round"></path><path clip-rule="evenodd" d="M76.5 277.57l-15 8.66V270.9l15-8.66v15.34z" stroke="#6A52FF" stroke-width="3" stroke-linecap="round" stroke-linejoin="round"></path><path clip-rule="evenodd" d="M46.5 277.57l15 8.66V270.9l-15-8.66v15.34z" stroke="#6A52FF" stroke-width="3" stroke-linecap="round" stroke-linejoin="round"></path><path clip-rule="evenodd" d="M76.5 292.92l-15 8.65v-15.33l15-8.67v15.35z" stroke="#6A52FF" stroke-width="3" stroke-linecap="round" stroke-linejoin="round"></path><path clip-rule="evenodd" d="M46.5 292.92l15 8.65v-15.33l-15-8.67v15.35z" stroke="#6A52FF" stroke-width="3" stroke-linecap="round" stroke-linejoin="round"></path><path clip-rule="evenodd" d="M46.5 277.57l-15 8.66V270.9l15-8.66v15.34z" stroke="#6A52FF" stroke-width="3" stroke-linecap="round" stroke-linejoin="round"></path><path clip-rule="evenodd" d="M16.5 277.57l15 8.66V270.9l-15-8.66v15.34z" stroke="#6A52FF" stroke-width="3" stroke-linecap="round" stroke-linejoin="round"></path><path clip-rule="evenodd" d="M46.5 292.92l-15 8.65v-15.33l15-8.67v15.35z" stroke="#6A52FF" stroke-width="3" stroke-linecap="round" stroke-linejoin="round"></path><path clip-rule="evenodd" d="M16.5 292.92l15 8.65v-15.33l-15-8.67v15.35z" stroke="#6A52FF" stroke-width="3" stroke-linecap="round" stroke-linejoin="round"></path><path clip-rule="evenodd" d="M16.5 277.57l-15 8.66V270.9l15-8.66v15.34z" stroke="#6A52FF" stroke-width="3" stroke-linecap="round" stroke-linejoin="round"></path><path clip-rule="evenodd" d="M16.5 292.92l-15 8.65v-15.33l15-8.67v15.35z" stroke="#6A52FF" stroke-width="3" stroke-linecap="round" stroke-linejoin="round"></path></svg>