<svg width="354" height="300" viewBox="0 0 354 300" fill="none" xmlns="http://www.w3.org/2000/svg"><path fill-rule="evenodd" clip-rule="evenodd" d="M319 53h13l-6.5-13-6.5 13z" fill="#2AE9AA"></path><path fill-rule="evenodd" clip-rule="evenodd" d="M341 53h13l-6.5-13-6.5 13z" fill="#2AE9AA"></path><path fill-rule="evenodd" clip-rule="evenodd" d="M343 38h-13l6.5 13 6.5-13z" fill="#2AE9AA"></path><path fill-rule="evenodd" clip-rule="evenodd" d="M354 57h-13l6.5 13 6.5-13z" fill="#2AE9AA"></path><path fill-rule="evenodd" clip-rule="evenodd" d="M332 57h-13l6.5 13 6.5-13z" fill="#2AE9AA"></path><path fill-rule="evenodd" clip-rule="evenodd" d="M330 72h13l-6.5-13-6.5 13z" fill="#2AE9AA"></path><path fill-rule="evenodd" clip-rule="evenodd" d="M341 15h13l-6.5-13-6.5 13z" fill="#2AE9AA"></path><path fill-rule="evenodd" clip-rule="evenodd" d="M275 15h13l-6.5-13-6.5 13z" fill="#2AE9AA"></path><path fill-rule="evenodd" clip-rule="evenodd" d="M220 34h13l-6.5-13-6.5 13z" fill="#2AE9AA"></path><path fill-rule="evenodd" clip-rule="evenodd" d="M233 0h-13l6.5 13L233 0z" fill="#2AE9AA"></path><path fill-rule="evenodd" clip-rule="evenodd" d="M231 19h13l-6.5 13-6.5-13z" fill="#2AE9AA"></path><path fill-rule="evenodd" clip-rule="evenodd" d="M255 34h-13l6.5-13 6.5 13z" fill="#2AE9AA"></path><path fill-rule="evenodd" clip-rule="evenodd" d="M244 15h-13l6.5-13 6.5 13z" fill="#2AE9AA"></path><path fill-rule="evenodd" clip-rule="evenodd" d="M242 0h13l-6.5 13L242 0z" fill="#2AE9AA"></path><path fill-rule="evenodd" clip-rule="evenodd" d="M277 0h-13l6.5 13L277 0z" fill="#2AE9AA"></path><path fill-rule="evenodd" clip-rule="evenodd" d="M288 19h-13l6.5 13 6.5-13z" fill="#2AE9AA"></path><path fill-rule="evenodd" clip-rule="evenodd" d="M264 34h13l-6.5-13-6.5 13z" fill="#2AE9AA"></path><path fill-rule="evenodd" clip-rule="evenodd" d="M266 15h-13l6.5-13 6.5 13z" fill="#2AE9AA"></path><path fill-rule="evenodd" clip-rule="evenodd" d="M253 19h13l-6.5 13-6.5-13z" fill="#2AE9AA"></path><path fill-rule="evenodd" clip-rule="evenodd" d="M286 34h13l-6.5-13-6.5 13z" fill="#2AE9AA"></path><path fill-rule="evenodd" clip-rule="evenodd" d="M299 0h-13l6.5 13L299 0z" fill="#2AE9AA"></path><path fill-rule="evenodd" clip-rule="evenodd" d="M297 19h13l-6.5 13-6.5-13z" fill="#2AE9AA"></path><path fill-rule="evenodd" clip-rule="evenodd" d="M321 34h-13l6.5-13 6.5 13z" fill="#2AE9AA"></path><path fill-rule="evenodd" clip-rule="evenodd" d="M310 15h-13l6.5-13 6.5 13z" fill="#2AE9AA"></path><path fill-rule="evenodd" clip-rule="evenodd" d="M308 0h13l-6.5 13L308 0z" fill="#2AE9AA"></path><path fill-rule="evenodd" clip-rule="evenodd" d="M343 0h-13l6.5 13L343 0z" fill="#2AE9AA"></path><path fill-rule="evenodd" clip-rule="evenodd" d="M354 19h-13l6.5 13 6.5-13z" fill="#2AE9AA"></path><path fill-rule="evenodd" clip-rule="evenodd" d="M330 34h13l-6.5-13-6.5 13z" fill="#2AE9AA"></path><path fill-rule="evenodd" clip-rule="evenodd" d="M332 15h-13l6.5-13 6.5 13z" fill="#2AE9AA"></path><path fill-rule="evenodd" clip-rule="evenodd" d="M319 19h13l-6.5 13-6.5-13z" fill="#2AE9AA"></path><path fill-rule="evenodd" clip-rule="evenodd" d="M209 15h13l-6.5-13-6.5 13z" fill="#2AE9AA"></path><path fill-rule="evenodd" clip-rule="evenodd" d="M143 15h13l-6.5-13-6.5 13z" fill="#2AE9AA"></path><path fill-rule="evenodd" clip-rule="evenodd" d="M90 19H77l6.5 13L90 19z" fill="#2AE9AA"></path><path fill-rule="evenodd" clip-rule="evenodd" d="M88 34h13l-6.5-13L88 34z" fill="#2AE9AA"></path><path fill-rule="evenodd" clip-rule="evenodd" d="M77 15h13L83.5 2 77 15z" fill="#2AE9AA"></path><path fill-rule="evenodd" clip-rule="evenodd" d="M101 0H88l6.5 13L101 0z" fill="#2AE9AA"></path><path fill-rule="evenodd" clip-rule="evenodd" d="M99 19h13l-6.5 13L99 19z" fill="#2AE9AA"></path><path fill-rule="evenodd" clip-rule="evenodd" d="M123 34h-13l6.5-13 6.5 13z" fill="#2AE9AA"></path><path fill-rule="evenodd" clip-rule="evenodd" d="M112 15H99l6.5-13 6.5 13z" fill="#2AE9AA"></path><path fill-rule="evenodd" clip-rule="evenodd" d="M110 0h13l-6.5 13L110 0z" fill="#2AE9AA"></path><path fill-rule="evenodd" clip-rule="evenodd" d="M145 0h-13l6.5 13L145 0z" fill="#2AE9AA"></path><path fill-rule="evenodd" clip-rule="evenodd" d="M156 19h-13l6.5 13 6.5-13z" fill="#2AE9AA"></path><path fill-rule="evenodd" clip-rule="evenodd" d="M132 34h13l-6.5-13-6.5 13z" fill="#2AE9AA"></path><path fill-rule="evenodd" clip-rule="evenodd" d="M134 15h-13l6.5-13 6.5 13z" fill="#2AE9AA"></path><path fill-rule="evenodd" clip-rule="evenodd" d="M121 19h13l-6.5 13-6.5-13z" fill="#2AE9AA"></path><path fill-rule="evenodd" clip-rule="evenodd" d="M154 34h13l-6.5-13-6.5 13z" fill="#2AE9AA"></path><path fill-rule="evenodd" clip-rule="evenodd" d="M167 0h-13l6.5 13L167 0z" fill="#2AE9AA"></path><path fill-rule="evenodd" clip-rule="evenodd" d="M165 19h13l-6.5 13-6.5-13z" fill="#2AE9AA"></path><path fill-rule="evenodd" clip-rule="evenodd" d="M189 34h-13l6.5-13 6.5 13z" fill="#2AE9AA"></path><path fill-rule="evenodd" clip-rule="evenodd" d="M178 15h-13l6.5-13 6.5 13z" fill="#2AE9AA"></path><path fill-rule="evenodd" clip-rule="evenodd" d="M176 0h13l-6.5 13L176 0z" fill="#2AE9AA"></path><path fill-rule="evenodd" clip-rule="evenodd" d="M211 0h-13l6.5 13L211 0z" fill="#2AE9AA"></path><path fill-rule="evenodd" clip-rule="evenodd" d="M222 19h-13l6.5 13 6.5-13z" fill="#2AE9AA"></path><path fill-rule="evenodd" clip-rule="evenodd" d="M198 34h13l-6.5-13-6.5 13z" fill="#2AE9AA"></path><path fill-rule="evenodd" clip-rule="evenodd" d="M200 15h-13l6.5-13 6.5 13z" fill="#2AE9AA"></path><path fill-rule="evenodd" clip-rule="evenodd" d="M187 19h13l-6.5 13-6.5-13z" fill="#2AE9AA"></path><path fill-rule="evenodd" clip-rule="evenodd" d="M11 15h13L17.5 2 11 15z" fill="#2AE9AA"></path><path fill-rule="evenodd" clip-rule="evenodd" d="M13 0H0l6.5 13L13 0z" fill="#2AE9AA"></path><path fill-rule="evenodd" clip-rule="evenodd" d="M24 19H11l6.5 13L24 19z" fill="#2AE9AA"></path><path fill-rule="evenodd" clip-rule="evenodd" d="M0 34h13L6.5 21 0 34z" fill="#2AE9AA"></path><path fill-rule="evenodd" clip-rule="evenodd" d="M22 34h13l-6.5-13L22 34z" fill="#2AE9AA"></path><path fill-rule="evenodd" clip-rule="evenodd" d="M35 0H22l6.5 13L35 0z" fill="#2AE9AA"></path><path fill-rule="evenodd" clip-rule="evenodd" d="M79 0H66l6.5 13L79 0z" fill="#2AE9AA"></path><path fill-rule="evenodd" clip-rule="evenodd" d="M57 0H44l6.5 13L57 0z" fill="#2AE9AA"></path><path fill-rule="evenodd" clip-rule="evenodd" d="M46 15H33l6.5-13L46 15z" fill="#2AE9AA"></path><path fill-rule="evenodd" clip-rule="evenodd" d="M33 19h13l-6.5 13L33 19z" fill="#2AE9AA"></path><path fill-rule="evenodd" clip-rule="evenodd" d="M44 34h13l-6.5-13L44 34z" fill="#2AE9AA"></path><path fill-rule="evenodd" clip-rule="evenodd" d="M66 34h13l-6.5-13L66 34z" fill="#2AE9AA"></path><path fill-rule="evenodd" clip-rule="evenodd" d="M68 15H55l6.5-13L68 15z" fill="#2AE9AA"></path><path fill-rule="evenodd" clip-rule="evenodd" d="M55 19h13l-6.5 13L55 19z" fill="#2AE9AA"></path><path fill-rule="evenodd" clip-rule="evenodd" d="M341 281h13l-6.5-13-6.5 13z" fill="#2AE9AA"></path><path fill-rule="evenodd" clip-rule="evenodd" d="M275 281h13l-6.5-13-6.5 13z" fill="#2AE9AA"></path><path fill-rule="evenodd" clip-rule="evenodd" d="M220 300h13l-6.5-13-6.5 13z" fill="#2AE9AA"></path><path fill-rule="evenodd" clip-rule="evenodd" d="M233 266h-13l6.5 13 6.5-13z" fill="#2AE9AA"></path><path fill-rule="evenodd" clip-rule="evenodd" d="M231 285h13l-6.5 13-6.5-13z" fill="#2AE9AA"></path><path fill-rule="evenodd" clip-rule="evenodd" d="M255 300h-13l6.5-13 6.5 13z" fill="#2AE9AA"></path><path fill-rule="evenodd" clip-rule="evenodd" d="M244 281h-13l6.5-13 6.5 13z" fill="#2AE9AA"></path><path fill-rule="evenodd" clip-rule="evenodd" d="M242 266h13l-6.5 13-6.5-13z" fill="#2AE9AA"></path><path fill-rule="evenodd" clip-rule="evenodd" d="M277 266h-13l6.5 13 6.5-13z" fill="#2AE9AA"></path><path fill-rule="evenodd" clip-rule="evenodd" d="M288 285h-13l6.5 13 6.5-13z" fill="#2AE9AA"></path><path fill-rule="evenodd" clip-rule="evenodd" d="M264 300h13l-6.5-13-6.5 13z" fill="#2AE9AA"></path><path fill-rule="evenodd" clip-rule="evenodd" d="M266 281h-13l6.5-13 6.5 13z" fill="#2AE9AA"></path><path fill-rule="evenodd" clip-rule="evenodd" d="M253 285h13l-6.5 13-6.5-13z" fill="#2AE9AA"></path><path fill-rule="evenodd" clip-rule="evenodd" d="M286 300h13l-6.5-13-6.5 13z" fill="#2AE9AA"></path><path fill-rule="evenodd" clip-rule="evenodd" d="M299 266h-13l6.5 13 6.5-13z" fill="#2AE9AA"></path><path fill-rule="evenodd" clip-rule="evenodd" d="M297 285h13l-6.5 13-6.5-13z" fill="#2AE9AA"></path><path fill-rule="evenodd" clip-rule="evenodd" d="M321 300h-13l6.5-13 6.5 13z" fill="#2AE9AA"></path><path fill-rule="evenodd" clip-rule="evenodd" d="M310 281h-13l6.5-13 6.5 13z" fill="#2AE9AA"></path><path fill-rule="evenodd" clip-rule="evenodd" d="M308 266h13l-6.5 13-6.5-13z" fill="#2AE9AA"></path><path fill-rule="evenodd" clip-rule="evenodd" d="M343 266h-13l6.5 13 6.5-13z" fill="#2AE9AA"></path><path fill-rule="evenodd" clip-rule="evenodd" d="M354 285h-13l6.5 13 6.5-13z" fill="#2AE9AA"></path><path fill-rule="evenodd" clip-rule="evenodd" d="M330 300h13l-6.5-13-6.5 13z" fill="#2AE9AA"></path><path fill-rule="evenodd" clip-rule="evenodd" d="M332 281h-13l6.5-13 6.5 13z" fill="#2AE9AA"></path><path fill-rule="evenodd" clip-rule="evenodd" d="M319 285h13l-6.5 13-6.5-13z" fill="#2AE9AA"></path><path fill-rule="evenodd" clip-rule="evenodd" d="M209 281h13l-6.5-13-6.5 13z" fill="#2AE9AA"></path><path fill-rule="evenodd" clip-rule="evenodd" d="M143 281h13l-6.5-13-6.5 13z" fill="#2AE9AA"></path><path fill-rule="evenodd" clip-rule="evenodd" d="M90 285H77l6.5 13 6.5-13z" fill="#2AE9AA"></path><path fill-rule="evenodd" clip-rule="evenodd" d="M46 285H33l6.5 13 6.5-13z" fill="#2AE9AA"></path><path fill-rule="evenodd" clip-rule="evenodd" d="M33 281h13l-6.5-13-6.5 13z" fill="#2AE9AA"></path><path fill-rule="evenodd" clip-rule="evenodd" d="M88 300h13l-6.5-13-6.5 13z" fill="#2AE9AA"></path><path fill-rule="evenodd" clip-rule="evenodd" d="M77 281h13l-6.5-13-6.5 13z" fill="#2AE9AA"></path><path fill-rule="evenodd" clip-rule="evenodd" d="M101 266H88l6.5 13 6.5-13z" fill="#2AE9AA"></path><path fill-rule="evenodd" clip-rule="evenodd" d="M99 285h13l-6.5 13-6.5-13z" fill="#2AE9AA"></path><path fill-rule="evenodd" clip-rule="evenodd" d="M123 300h-13l6.5-13 6.5 13z" fill="#2AE9AA"></path><path fill-rule="evenodd" clip-rule="evenodd" d="M112 281H99l6.5-13 6.5 13z" fill="#2AE9AA"></path><path fill-rule="evenodd" clip-rule="evenodd" d="M110 266h13l-6.5 13-6.5-13z" fill="#2AE9AA"></path><path fill-rule="evenodd" clip-rule="evenodd" d="M145 266h-13l6.5 13 6.5-13z" fill="#2AE9AA"></path><path fill-rule="evenodd" clip-rule="evenodd" d="M156 285h-13l6.5 13 6.5-13z" fill="#2AE9AA"></path><path fill-rule="evenodd" clip-rule="evenodd" d="M132 300h13l-6.5-13-6.5 13z" fill="#2AE9AA"></path><path fill-rule="evenodd" clip-rule="evenodd" d="M134 281h-13l6.5-13 6.5 13z" fill="#2AE9AA"></path><path fill-rule="evenodd" clip-rule="evenodd" d="M121 285h13l-6.5 13-6.5-13z" fill="#2AE9AA"></path><path fill-rule="evenodd" clip-rule="evenodd" d="M154 300h13l-6.5-13-6.5 13z" fill="#2AE9AA"></path><path fill-rule="evenodd" clip-rule="evenodd" d="M167 266h-13l6.5 13 6.5-13z" fill="#2AE9AA"></path><path fill-rule="evenodd" clip-rule="evenodd" d="M165 285h13l-6.5 13-6.5-13z" fill="#2AE9AA"></path><path fill-rule="evenodd" clip-rule="evenodd" d="M189 300h-13l6.5-13 6.5 13z" fill="#2AE9AA"></path><path fill-rule="evenodd" clip-rule="evenodd" d="M178 281h-13l6.5-13 6.5 13z" fill="#2AE9AA"></path><path fill-rule="evenodd" clip-rule="evenodd" d="M176 266h13l-6.5 13-6.5-13z" fill="#2AE9AA"></path><path fill-rule="evenodd" clip-rule="evenodd" d="M211 266h-13l6.5 13 6.5-13z" fill="#2AE9AA"></path><path fill-rule="evenodd" clip-rule="evenodd" d="M222 285h-13l6.5 13 6.5-13z" fill="#2AE9AA"></path><path fill-rule="evenodd" clip-rule="evenodd" d="M198 300h13l-6.5-13-6.5 13z" fill="#2AE9AA"></path><path fill-rule="evenodd" clip-rule="evenodd" d="M200 281h-13l6.5-13 6.5 13z" fill="#2AE9AA"></path><path fill-rule="evenodd" clip-rule="evenodd" d="M187 285h13l-6.5 13-6.5-13z" fill="#2AE9AA"></path><path fill-rule="evenodd" clip-rule="evenodd" d="M11 281h13l-6.5-13-6.5 13z" fill="#2AE9AA"></path><path fill-rule="evenodd" clip-rule="evenodd" d="M13 266H0l6.5 13 6.5-13z" fill="#2AE9AA"></path><path fill-rule="evenodd" clip-rule="evenodd" d="M24 285H11l6.5 13 6.5-13z" fill="#2AE9AA"></path><path fill-rule="evenodd" clip-rule="evenodd" d="M0 300h13l-6.5-13L0 300z" fill="#2AE9AA"></path><path fill-rule="evenodd" clip-rule="evenodd" d="M22 300h13l-6.5-13-6.5 13z" fill="#2AE9AA"></path><path fill-rule="evenodd" clip-rule="evenodd" d="M35 266H22l6.5 13 6.5-13z" fill="#2AE9AA"></path><path fill-rule="evenodd" clip-rule="evenodd" d="M79 266H66l6.5 13 6.5-13z" fill="#2AE9AA"></path><path fill-rule="evenodd" clip-rule="evenodd" d="M57 266H44l6.5 13 6.5-13z" fill="#2AE9AA"></path><path fill-rule="evenodd" clip-rule="evenodd" d="M44 300h13l-6.5-13-6.5 13z" fill="#2AE9AA"></path><path fill-rule="evenodd" clip-rule="evenodd" d="M66 300h13l-6.5-13-6.5 13z" fill="#2AE9AA"></path><path fill-rule="evenodd" clip-rule="evenodd" d="M68 281H55l6.5-13 6.5 13z" fill="#2AE9AA"></path><path fill-rule="evenodd" clip-rule="evenodd" d="M55 285h13l-6.5 13-6.5-13z" fill="#2AE9AA"></path><path fill-rule="evenodd" clip-rule="evenodd" d="M319 91h13l-6.5-13-6.5 13z" fill="#2AE9AA"></path><path fill-rule="evenodd" clip-rule="evenodd" d="M341 91h13l-6.5-13-6.5 13z" fill="#2AE9AA"></path><path fill-rule="evenodd" clip-rule="evenodd" d="M343 76h-13l6.5 13 6.5-13z" fill="#2AE9AA"></path><path fill-rule="evenodd" clip-rule="evenodd" d="M354 95h-13l6.5 13 6.5-13z" fill="#2AE9AA"></path><path fill-rule="evenodd" clip-rule="evenodd" d="M332 95h-13l6.5 13 6.5-13z" fill="#2AE9AA"></path><path fill-rule="evenodd" clip-rule="evenodd" d="M330 110h13l-6.5-13-6.5 13z" fill="#2AE9AA"></path><path fill-rule="evenodd" clip-rule="evenodd" d="M319 129h13l-6.5-13-6.5 13z" fill="#2AE9AA"></path><path fill-rule="evenodd" clip-rule="evenodd" d="M341 129h13l-6.5-13-6.5 13z" fill="#2AE9AA"></path><path fill-rule="evenodd" clip-rule="evenodd" d="M343 114h-13l6.5 13 6.5-13z" fill="#2AE9AA"></path><path fill-rule="evenodd" clip-rule="evenodd" d="M354 133h-13l6.5 13 6.5-13z" fill="#2AE9AA"></path><path fill-rule="evenodd" clip-rule="evenodd" d="M332 133h-13l6.5 13 6.5-13z" fill="#2AE9AA"></path><path fill-rule="evenodd" clip-rule="evenodd" d="M330 148h13l-6.5-13-6.5 13z" fill="#2AE9AA"></path><path fill-rule="evenodd" clip-rule="evenodd" d="M319 167h13l-6.5-13-6.5 13z" fill="#2AE9AA"></path><path fill-rule="evenodd" clip-rule="evenodd" d="M341 167h13l-6.5-13-6.5 13z" fill="#2AE9AA"></path><path fill-rule="evenodd" clip-rule="evenodd" d="M343 152h-13l6.5 13 6.5-13z" fill="#2AE9AA"></path><path fill-rule="evenodd" clip-rule="evenodd" d="M354 171h-13l6.5 13 6.5-13z" fill="#2AE9AA"></path><path fill-rule="evenodd" clip-rule="evenodd" d="M332 171h-13l6.5 13 6.5-13z" fill="#2AE9AA"></path><path fill-rule="evenodd" clip-rule="evenodd" d="M330 186h13l-6.5-13-6.5 13z" fill="#2AE9AA"></path><path fill-rule="evenodd" clip-rule="evenodd" d="M319 205h13l-6.5-13-6.5 13z" fill="#2AE9AA"></path><path fill-rule="evenodd" clip-rule="evenodd" d="M341 205h13l-6.5-13-6.5 13z" fill="#2AE9AA"></path><path fill-rule="evenodd" clip-rule="evenodd" d="M343 190h-13l6.5 13 6.5-13z" fill="#2AE9AA"></path><path fill-rule="evenodd" clip-rule="evenodd" d="M354 209h-13l6.5 13 6.5-13z" fill="#2AE9AA"></path><path fill-rule="evenodd" clip-rule="evenodd" d="M332 209h-13l6.5 13 6.5-13z" fill="#2AE9AA"></path><path fill-rule="evenodd" clip-rule="evenodd" d="M330 224h13l-6.5-13-6.5 13z" fill="#2AE9AA"></path><path fill-rule="evenodd" clip-rule="evenodd" d="M319 243h13l-6.5-13-6.5 13z" fill="#2AE9AA"></path><path fill-rule="evenodd" clip-rule="evenodd" d="M341 243h13l-6.5-13-6.5 13z" fill="#2AE9AA"></path><path fill-rule="evenodd" clip-rule="evenodd" d="M343 228h-13l6.5 13 6.5-13z" fill="#2AE9AA"></path><path fill-rule="evenodd" clip-rule="evenodd" d="M354 247h-13l6.5 13 6.5-13z" fill="#2AE9AA"></path><path fill-rule="evenodd" clip-rule="evenodd" d="M332 247h-13l6.5 13 6.5-13z" fill="#2AE9AA"></path><path fill-rule="evenodd" clip-rule="evenodd" d="M330 262h13l-6.5-13-6.5 13z" fill="#2AE9AA"></path></svg>