<svg xmlns="http://www.w3.org/2000/svg" width="100%" viewBox="0 0 286 107"><path fill-rule="evenodd" clip-rule="evenodd" d="M104.547 73.3024V69.5569L104.828 69.9002C105.67 70.9004 106.664 71.7601 107.773 72.4473C109.894 73.7381 112.38 74.2904 114.845 74.0189C117.555 73.8246 120.117 72.7012 122.101 70.8365C124.016 69.0451 125.176 66.799 125.877 64.3001C126.61 61.5725 126.807 58.7273 126.455 55.9241C126.22 53.54 125.479 51.2342 124.283 49.1618C121.451 44.2933 116.334 42.5079 111.63 43.2877C108.921 43.7347 106.476 45.1821 104.774 47.3463C104.738 47.3884 104.699 47.4294 104.647 47.4842C104.614 47.5195 104.575 47.5605 104.529 47.6112V32.6476H96.8672V73.3024H104.547ZM104.547 63.5022V58.6308L104.555 58.6428V53.7924C104.544 53.559 104.618 53.3294 104.765 53.1481C106.137 51.4135 108.143 50.304 110.335 50.0681C112.492 49.8031 114.476 50.2939 116.109 51.8444C117.336 53.0134 118.153 54.5504 118.437 56.2251C118.856 58.4772 118.797 60.7172 117.856 62.8489C116.831 65.1431 115.141 66.6575 112.636 67.0429C109.52 67.5216 106.899 66.507 104.783 64.1646C104.618 63.9851 104.533 63.7461 104.547 63.5022Z" fill="#000"></path><path fill-rule="evenodd" clip-rule="evenodd" d="M208.068 64.8542C207.21 63.7498 206.668 62.4283 206.5 61.0334L228.187 61.0304V58.8906C228.174 56.8097 227.824 54.7451 227.15 52.7792C225.86 49.0882 223.58 46.2543 220.078 44.5098C217.237 43.1026 214.022 42.6683 210.917 43.2725C205.421 44.2563 201.583 47.4101 199.497 52.6675C198.604 55.0274 198.265 57.5645 198.504 60.0797C198.639 62.2721 199.242 64.4088 200.271 66.3421C202.784 70.9657 206.795 73.2775 211.844 73.9414C213.929 74.1962 216.042 74.1147 218.102 73.7C220.361 73.2714 222.522 72.5501 224.456 71.2554C224.851 70.994 225.224 70.7041 225.6 70.4121C225.77 70.2793 225.942 70.1461 226.116 70.015L222.706 64.9689L222.468 65.1802C222.391 65.2466 222.313 65.313 222.233 65.3733C219.751 67.2658 216.657 68.1429 213.566 67.83C211.393 67.696 209.385 66.6095 208.068 64.8542ZM220.743 55.764H206.372L206.363 55.761C206.528 54.3455 207.068 53.0015 207.925 51.8708C209.134 50.2641 210.997 49.2995 212.991 49.2481C214.821 49.1485 216.531 49.4835 218.042 50.5972C219.685 51.8044 220.486 53.4884 220.743 55.4803C220.748 55.5748 220.748 55.6695 220.743 55.764Z" fill="#000"></path><path d="M149.912 44.3022H157.676V73.3262H149.912V69.7371C149.393 70.1884 148.945 70.6277 148.447 71.0077C146.598 72.4356 144.57 73.5043 142.205 73.8605C140.121 74.2123 137.986 74.1527 135.926 73.6854C132.894 72.9521 131.054 71.0314 130.239 68.1193C129.981 67.1754 129.853 66.2019 129.86 65.2249V44.3022H137.639V61.6091C137.639 62.3435 137.704 63.0765 137.833 63.8C138.164 65.6316 139.376 66.6646 141.168 67.0654C144.03 67.6977 146.562 67.0149 148.748 65.1061C148.917 64.9607 149.081 64.8093 149.251 64.6608C149.7 64.2969 149.946 63.7463 149.915 63.1765C149.884 57.0316 149.897 50.8866 149.897 44.7386C149.904 44.5962 149.904 44.4535 149.897 44.3112L149.912 44.3022Z" fill="#000"></path><path d="M197.823 43.8824V50.666H191.808V73.4389H183.933V51.1341C183.933 50.6781 183.933 50.675 183.462 50.675H179.023V43.8945H183.915C183.915 43.7314 183.933 43.5925 183.933 43.4566C183.883 42.1183 183.97 40.7784 184.194 39.4577C184.942 35.5802 188.118 32.6251 192.057 32.1426C194.447 31.7993 196.885 32.0782 199.135 32.9521C200.045 33.3172 200.866 33.8724 201.542 34.58C201.639 34.6797 201.721 34.7491 201.615 34.9153C200.665 36.374 199.724 37.8449 198.801 39.2735C198.332 38.9676 197.844 38.6921 197.34 38.449C196.418 38.0689 195.396 38.0021 194.432 38.2587C193.004 38.6166 191.971 39.8481 191.872 41.3092C191.781 42.1518 191.796 43.0035 191.763 43.8824H197.823Z" fill="#000"></path><path d="M164.537 50.6806H159.617V43.8972H164.522V43.45C164.481 42.1359 164.563 40.8208 164.767 39.522C165.496 35.6185 168.672 32.6335 172.622 32.1404C175.004 31.8008 177.433 32.0798 179.675 32.9501C180.666 33.3449 181.551 33.9658 182.259 34.7631L179.317 39.3377C178.766 38.8031 178.079 38.43 177.33 38.259C176.542 38.0508 175.713 38.0508 174.925 38.259C173.838 38.5465 172.975 39.3702 172.64 40.4405C172.262 41.5615 172.374 42.7037 172.359 43.8791H178.372V50.6503H172.365V73.4389H164.537V50.6806Z" fill="#000"></path><path d="M58.6906 32C59.183 32.0994 59.6663 32.2389 60.1359 32.417C65.4244 34.8673 70.7068 37.3286 75.9833 39.8009L78.6155 41.0251C78.7652 41.0899 78.9107 41.1641 79.0512 41.2471C79.5169 41.5471 79.5199 41.9822 79.0512 42.2462C78.5824 42.5102 78.1017 42.7113 77.6179 42.9363C71.7725 45.6626 65.9272 48.3869 60.0818 51.1092C59.2116 51.5295 58.1966 51.5295 57.3264 51.1092C51.1044 48.2169 44.8885 45.3166 38.6786 42.4082C38.5317 42.3435 38.3917 42.2641 38.2609 42.1712C38.1005 42.0873 38 41.9214 38 41.7406C38 41.5598 38.1005 41.394 38.2609 41.3101C38.3908 41.214 38.5308 41.1325 38.6786 41.0671C44.8645 38.1767 51.0564 35.2914 57.2543 32.411C57.7209 32.2349 58.2013 32.0974 58.6906 32Z" fill="#000"></path><path d="M231.422 73.4271V44.3941H238.987V48.2363L239.058 48.2808C240.202 46.9337 241.591 45.8173 243.151 44.9909C244.708 44.1205 246.459 43.6608 248.241 43.6548V51.0778C247.768 51.0362 247.303 50.9798 246.835 50.959C244.281 50.8201 241.771 51.6704 239.824 53.3344L239.732 53.4116C239.232 53.8175 238.956 54.4389 238.99 55.0833C239.022 61.0662 239.007 67.0522 239.007 73.0411V73.439L231.422 73.4271Z" fill="#000"></path><path d="M43.4018 61.7842C43.8924 61.8936 44.3744 62.0386 44.844 62.218C48.9962 64.1459 53.1364 66.0948 57.2826 68.0288C58.1691 68.462 59.2052 68.462 60.0917 68.0288C64.298 66.0677 68.4893 64.0886 72.7106 62.1366C73.5577 61.7383 74.5375 61.7383 75.3846 62.1366C76.5203 62.6397 77.641 63.1849 78.7646 63.7151C79.0651 63.8537 79.4046 63.9742 79.4016 64.3748C79.3986 64.7754 79.0531 64.8959 78.7616 65.0345L65.3346 71.3303C63.607 72.1376 61.8854 72.954 60.1578 73.7552C59.2531 74.1967 58.1963 74.1967 57.2916 73.7552C53.1273 71.8213 48.9631 69.8753 44.7989 67.9173L38.7899 65.1008C38.5747 65.0084 38.3727 64.8878 38.189 64.7423C38.0708 64.6615 38 64.5273 38 64.3838C38 64.2404 38.0708 64.1062 38.189 64.0254C38.3439 63.8936 38.5169 63.7851 38.7028 63.703C39.7904 63.1879 40.872 62.6547 41.9747 62.1969C42.4453 62.0292 42.9273 61.8953 43.4168 61.7962L43.4018 61.7842Z" fill="#000"></path><path d="M58.6864 63.0188C58.1664 63.0406 57.6494 62.9296 57.1839 62.6962C52.9209 60.6862 48.6559 58.6852 44.3888 56.6933L38.6283 53.9798C38.3278 53.8411 37.9883 53.7205 38.0003 53.3195C38.0123 52.9185 38.3489 52.8009 38.6434 52.6622C39.7041 52.1617 40.7679 51.6672 41.8286 51.1547C42.7713 50.6754 43.8833 50.6664 44.8336 51.1306L57.3281 56.9767C58.1885 57.3919 59.1903 57.3919 60.0506 56.9767C64.2365 55.023 68.4344 53.0572 72.6293 51.0944C73.51 50.6712 74.5343 50.6712 75.4149 51.0944C76.5658 51.616 77.7167 52.1617 78.8526 52.7014C78.9599 52.7526 79.0608 52.8163 79.1531 52.8913C79.3063 52.9754 79.4016 53.1367 79.4016 53.3119C79.4016 53.4872 79.3063 53.6484 79.1531 53.7325C78.914 53.8875 78.6616 54.0207 78.3988 54.1305L62.3043 61.6681C61.5832 62.0058 60.874 62.3706 60.1408 62.6721C59.6752 62.8353 59.2007 62.9712 58.7194 63.0791L58.6864 63.0188Z" fill="#000"></path></svg>