<!-- viewBox="0 0 1170.84 200" -->
<svg xmlns="http://www.w3.org/2000/svg" height="40" width="40" viewBox="0 0 200 200"><title>channels_full-logo</title><g fill="#6a52ff"><path d="M127.12,10,109.92.11a.84.84,0,0,0-.84,0L91.67,10.16a.84.84,0,0,1-.84,0L73.42.11a.84.84,0,0,0-.84,0L55.38,10a.42.42,0,0,0,0,.73L91,31.36a.45.45,0,0,0,.42,0l35.66-20.59A.42.42,0,0,0,127.12,10Z"></path><path d="M163.62,31.11l-17.2-9.92a.84.84,0,0,0-.84,0L91.67,52.31a.84.84,0,0,1-.84,0L36.92,21.19a.84.84,0,0,0-.84,0l-17.2,9.92a.42.42,0,0,0,0,.73L91,73.5a.4.4,0,0,0,.42,0l72.16-41.66A.42.42,0,0,0,163.62,31.11Z"></path><path d="M109.5,84.65v19.86a.42.42,0,0,0,.63.36l72.16-41.66a.41.41,0,0,0,.21-.36V43.48a.84.84,0,0,0-1.26-.73L109.92,83.92A.84.84,0,0,0,109.5,84.65Z"></path><path d="M110.13,147l72.16-41.66a.44.44,0,0,0,.21-.37V85.62a.84.84,0,0,0-1.26-.73l-71.32,41.18a.83.83,0,0,0-.42.73v19.85A.42.42,0,0,0,110.13,147Z"></path><path d="M91.25,177.53V95.19a.83.83,0,0,0-.42-.73L74.26,84.89a.84.84,0,0,0-1.26.73V167a.84.84,0,0,1-1.26.73l-16.57-9.57a.84.84,0,0,1-.42-.73V74.11a.84.84,0,0,0-.42-.73L37.76,63.82a.84.84,0,0,0-1.26.73v81.37a.84.84,0,0,1-1.26.73l-16.57-9.56a.84.84,0,0,1-.42-.73V53a.84.84,0,0,0-.42-.73L1.26,42.75A.84.84,0,0,0,0,43.48V147.14a.41.41,0,0,0,.21.36L91,199.94a.4.4,0,0,0,.42,0l90.83-52.44a.41.41,0,0,0,.21-.36V127.77a.84.84,0,0,0-1.26-.73L92.51,178.26A.84.84,0,0,1,91.25,177.53Z"></path></g></svg>