<svg xmlns="http://www.w3.org/2000/svg" height="40" width="40" viewBox="0 0 200 200"><title>chatkit_full-logo</title>
<!-- viewBox="0 0 989.68 200" -->
<g fill="#ff8473"><path d="M73.51.11,90.94,10.18a.84.84,0,0,0,.84,0L109.21.11a.84.84,0,0,1,.84,0l17.22,9.94a.42.42,0,0,1,0,.73L91.57,31.4a.45.45,0,0,1-.42,0L55.45,10.78a.42.42,0,0,1,0-.73L72.67.11A.84.84,0,0,1,73.51.11Z"></path><path d="M18.91,31.88,91.15,73.59a.4.4,0,0,0,.42,0l72.25-41.71a.42.42,0,0,0,0-.73L146.6,21.21a.86.86,0,0,0-.85,0l-54,31.16a.84.84,0,0,1-.84,0L37,21.21a.86.86,0,0,0-.85,0L18.91,31.15A.42.42,0,0,0,18.91,31.88Z"></path><path d="M181.46,42.8,110.05,84a.84.84,0,0,0-.42.73v19.88a.43.43,0,0,0,.64.37l72.24-41.71a.44.44,0,0,0,.21-.37V43.53A.84.84,0,0,0,181.46,42.8Z"></path><path d="M109.63,127v19.88a.43.43,0,0,0,.64.37l72.24-41.71a.44.44,0,0,0,.21-.37V85.73a.84.84,0,0,0-1.26-.73l-71.41,41.22A.84.84,0,0,0,109.63,127Z"></path><path d="M109.63,169.15V189a.42.42,0,0,0,.64.36l72.24-41.71a.41.41,0,0,0,.21-.36v-19.4a.84.84,0,0,0-1.26-.73l-71.41,41.23A.84.84,0,0,0,109.63,169.15Z"></path><path d="M1.27,42.8,90.94,94.57a.84.84,0,0,1,.42.73V199.58a.42.42,0,0,1-.63.36L73.3,189.88a.41.41,0,0,1-.21-.36V105.61a.44.44,0,0,0-.21-.37L.21,63.29A.44.44,0,0,1,0,62.92V43.53A.84.84,0,0,1,1.27,42.8Z"></path><path d="M1.27,85l53.12,30.67a.83.83,0,0,1,.43.73v62.08a.42.42,0,0,1-.64.36L36.76,168.78a.4.4,0,0,1-.22-.36V126.71a.44.44,0,0,0-.21-.37L.21,105.49a.44.44,0,0,1-.21-.37V85.73A.84.84,0,0,1,1.27,85Z"></path><path d="M1.27,127.19l16.58,9.58a.84.84,0,0,1,.42.73v19.88a.42.42,0,0,1-.63.37L.21,147.68a.41.41,0,0,1-.21-.36v-19.4A.85.85,0,0,1,1.27,127.19Z"></path></g></svg>