<svg xmlns="http://www.w3.org/2000/svg" width="194" viewBox="0 0 194 75"><path d="M1.16 75a1.17 1.17 0 0 1-1.03-1.7c5.31-10.43 12.82-23.77 23.84-34.4a66.77 66.77 0 0 1 21.1-13.98c3.4-1.4 15.1-5.44 22.54.88 4.57 3.89 6.57 9.93 6.1 18.47l-.05 1.15-.14 2.42a90.76 90.76 0 0 1 23.9-34.22c7.85-6.97 15.36-10.98 22.95-12.23 9.65-1.6 19.11 1.8 24.12 8.66 4.24 5.8 5.47 13.97 3.65 24.28l-1.9 10.9c5.25-9.62 14.27-18.11 25.14-20.26 4.76-.94 8.77-.6 11.94.97 5.1 2.54 8.36 8.38 9.7 17.33a87.82 87.82 0 0 1-.61 29.72c-.1.54-.58.93-1.13.94L1.16 75zm55.9-50.29c-3.77 0-7.76 1-11.13 2.37a64.47 64.47 0 0 0-20.35 13.5C15.4 50.4 8.24 62.66 3.08 72.65L190.3 71.6a85.51 85.51 0 0 0 .43-27.98c-1.23-8.16-4.06-13.41-8.44-15.6-2.7-1.34-6.22-1.6-10.46-.76-6.66 1.3-13.23 5.48-18.5 11.74-4.81 5.7-8.22 12.72-9.35 19.24a1.16 1.16 0 1 1-2.28-.4v-.01c.08-.49 2.78-16.1 4.15-23.9 1.7-9.67.62-17.24-3.23-22.5-4.43-6.07-13.21-9.18-21.87-7.75-7.15 1.19-14.27 5-21.79 11.68a88.4 88.4 0 0 0-27 45.09 1.16 1.16 0 1 1-2.26-.55c1.11-4.64 1.38-9.7 1.64-14.6l.06-1.15c.42-7.77-1.31-13.19-5.3-16.57-2.42-2.06-5.64-2.87-9.03-2.87z" fill="#E5E5E5"></path></svg>