<svg xmlns="http://www.w3.org/2000/svg" width="195" height="56" viewBox="0 0 195 56"><path d="M65.44 39.68a4.58 4.58 0 0 1-4.51-3.73c-.54-2.52.7-5.45 1.92-7.2 1.4-2 4.89-6 8.88-10.19a1.28 1.28 0 0 1 2.1.4c.55 1.34.14 11-1.31 14.66-.91 2.28-2.97 4.95-5.51 5.79a4.9 4.9 0 0 1-1.57.27zm6.07-17.2a92.3 92.3 0 0 0-6.57 7.7c-1.22 1.73-1.84 3.84-1.54 5.25.14.64.46 1.12.98 1.43.56.34 1.15.4 1.82.17 1.48-.48 3.14-2.3 3.95-4.32.9-2.28 1.3-7.14 1.36-10.24z" fill="#E5E5E5"></path><path d="M193.73 56L1.25 54.9c-.47 0-.9-.26-1.12-.68-.22-.41-.18-.91.1-1.3C10.44 38.78 18.1 29.3 28.5 17.99c4.17-4.54 8.7-9.25 14.2-12.59C48.96 1.6 55.67.19 61.59 1.44c2.82.6 5.03 1.73 6.57 3.36 2.06 2.2 4.63 7.64 5.5 12.22 8.16-5.85 19.87-8.65 24.45-8.8 6.6-.2 16.19.77 24.27 6.52a30.42 30.42 0 0 1 11.9 17.87 21.12 21.12 0 0 1 9.26-9.66c9-4.96 21.98-5 30.83-.09 12.41 6.89 20.25 30.49 20.58 31.49a1.26 1.26 0 0 1-1.2 1.65zm-190-3.58l188.22 1.06c-2.02-5.47-9.08-23.02-18.83-28.43-8.14-4.51-20.06-4.48-28.35.1-4.26 2.34-9.41 6.9-9.76 15.25-.03.69-.62 1.23-1.32 1.2-.7-.03-1.24-.61-1.22-1.3a28.16 28.16 0 0 0-11.58-23.52c-7.5-5.34-16.5-6.24-22.7-6.05-4.93.15-17.39 3.49-24.7 9.6a1.27 1.27 0 0 1-2.09-.9c-.21-4.25-2.99-10.65-5.1-12.93-1.18-1.25-2.94-2.13-5.25-2.61-5.28-1.1-11.32.18-17 3.63-5.22 3.17-9.61 7.73-13.65 12.14A338.68 338.68 0 0 0 3.73 52.42z" fill="#E5E5E5"></path></svg>