<svg xmlns="http://www.w3.org/2000/svg" width="100%" viewBox="0 0 286 107" fill="#000"><path fill-rule="evenodd" clip-rule="evenodd" d="M74.409 53.8589L75.9796 53.5611L78.4735 77.8755L47.6201 81.5542L46.948 76.8139L45.0838 77.0802C45.2501 79.7218 44.6239 82.2304 43.446 83.4286C42.0664 84.83 40.0713 85.1943 37.9488 84.9105C36.5268 84.7213 35.4727 83.7018 34.6909 82.4581C37.6093 84.5006 41.2316 83.5547 42.4732 81.845C44.2171 79.438 43.7679 77.1678 43.1205 75.0447C42.6147 73.384 41.2386 70.6092 39.5336 69.5582C38.0951 68.6299 36.3763 68.2239 34.6697 68.409L34.8005 68.2584C36.8629 67.8554 39.0171 68.0762 40.5771 69.0712C42.3458 70.1888 43.9731 72.1332 44.822 75.0937C45.3039 75.025 45.5784 74.9749 45.8436 74.9265C46.1058 74.8787 46.36 74.8323 46.7959 74.7714L44.8185 59.5101L49.0068 59.0546C47.2273 57.8998 45.5902 56.5429 44.1287 55.0116C43.9801 54.8995 44.0049 54.4055 44.0049 54.4055C44.8044 55.0221 48.1331 57.3764 51.6493 58.452C53.2386 58.9583 54.9666 58.8119 56.446 58.0456C57.8811 57.2308 59.135 56.1368 60.132 54.8294L60.2982 55.1167C60.1417 55.6324 59.9282 56.1294 59.6615 56.5987C60.006 56.7819 60.3753 56.9153 60.7581 56.9946L63.6729 56.5461C64.7165 54.8644 65.4699 52.1772 64.6705 49.6092C64.2141 48.1482 61.837 45.2158 61.6672 45.0546C61.4156 44.8142 61.3939 44.2858 61.3649 43.5759C61.325 42.5994 61.271 41.2796 60.5848 39.8939C59.3355 37.3669 56.0866 34.7284 54.6662 33.5748L54.6561 33.5666C54.7612 33.6434 55.0031 33.7655 55.3252 33.9282C56.2818 34.4113 57.9464 35.2519 58.8408 36.3239C58.9006 36.2461 58.9417 35.9944 58.9822 35.7458C59.0184 35.5237 59.0542 35.3041 59.1026 35.2132C58.0767 33.8819 57.9954 31.5065 57.9954 30.8724C57.9464 30.017 57.744 29.177 57.3976 28.3919C58.0611 28.9633 58.5161 29.7354 58.6922 30.5886C58.9629 32.0679 59.6052 33.4559 60.56 34.6246C62.2367 36.6917 63.7472 37.7533 64.5148 36.9895C65.431 36.0716 63.588 31.9655 61.2321 29.6742C58.5511 27.0702 57.8002 27.337 56.2638 27.8829L56.1524 27.9224C55.7054 28.0798 55.3295 28.6209 54.888 29.2566C54.0612 30.4471 53.004 31.9691 50.818 31.9234C50.2484 31.8604 48.7698 31.8288 48.0623 31.8288C48.4479 31.3068 48.7698 30.9039 48.7698 30.9039C48.0528 31.1954 47.3567 31.5349 46.6863 31.9199L46.612 31.8078C46.7954 31.4183 47.0208 31.0494 47.2841 30.7077C46.6923 31.0654 46.1208 31.4549 45.572 31.8744C45.672 31.376 45.918 30.9178 46.2795 30.5571C46.2795 30.5571 45.1439 30.7603 43.6971 32.3369C42.4674 32.6695 41.9356 32.9179 41.1986 33.2623C40.9498 33.3785 40.6775 33.5057 40.3472 33.6507C38.2177 33.1812 37.2131 32.4455 36.2544 31.0791C35.5222 30.035 34.2275 29.8774 32.8974 30.4169C30.966 31.2122 28.5216 32.3053 28.5216 32.3053C28.5216 32.3053 29.3176 32.2703 30.1488 32.3053C29.3856 32.5997 28.6403 32.9378 27.9167 33.3178H29.1088C28.7484 33.6191 28.3691 33.8976 27.9733 34.1517C27.3039 34.64 26.6735 35.1788 26.0879 35.7633C26.5236 35.5693 26.9714 35.4031 27.4286 35.2658C27.2913 35.5707 27.1156 35.8511 26.942 36.1283C26.543 36.7651 26.1549 37.3845 26.2683 38.2438C26.4346 39.3684 27.8177 41.6842 29.6182 43.1066C29.6272 43.1137 29.6438 43.1278 29.6676 43.1479C30.0555 43.4767 32.3393 45.4122 34.086 44.5571C35.9396 43.6497 36.6718 42.8088 36.9761 41.5476C37.3369 40.0971 37.1317 39.0075 36.3676 35.8544C36.1165 34.8033 35.4585 32.6732 35.1401 31.6502L35.2109 31.5976C35.8122 32.8659 37.3616 36.2047 37.9807 38.447C38.957 41.947 38.6493 43.7198 38.2035 44.3714C36.8593 46.3334 33.4068 46.5926 31.8362 45.5066C31.6269 48.8324 32.2644 50.5163 32.6137 51.4388C32.66 51.561 32.7012 51.6698 32.7347 51.7673C32.5967 52.7273 33.2335 54.4931 33.2335 54.4931C33.2683 54.0618 33.3885 53.6416 33.5872 53.2563C33.6784 53.9789 33.8676 54.686 34.1497 55.3584C34.1353 54.9133 34.1975 54.469 34.3336 54.0446C34.5831 54.4155 34.861 54.7669 35.1649 55.0957C35.3554 55.7258 35.6546 56.3184 36.0493 56.8474C35.991 56.479 35.9768 56.105 36.0068 55.7333C37.4465 57.1067 37.6941 59.1037 37.8392 60.6382C38.0868 63.3244 35.2982 65.6603 32.8816 67.6846C31.5002 68.8418 30.2403 69.8971 29.7385 70.858C28.6914 72.4205 28.0688 74.8975 29.8376 76.355C30.7844 77.0922 31.6278 77.9511 32.3456 78.909L26.332 79.7744L20 28.8999L71.3916 23L74.409 53.8589ZM50.3263 60.0391L46.4351 60.5681L48.8193 80.0407L76.0574 75.1778L74.4373 55.7333L58.5189 58.5887C57.9956 59.2185 57.3762 59.7634 56.683 60.2038C55.2931 60.958 53.6492 61.1065 52.1445 60.6137C51.521 60.4813 50.912 60.2888 50.3263 60.0391ZM68.9967 67.0216L63.7897 63.6197L59.4422 70.8054L54.3907 69.3444L49.9407 76.0712L50.1671 78.1733L74.363 73.7589L72.948 58.7884L68.9967 67.0216ZM44.9034 46.5191C43.5203 45.3349 43.5663 43.2433 45.0095 42.2693C46.9693 40.9345 49.4914 41.4565 49.0669 41.8629C48.6344 42.2706 48.7421 42.3952 48.953 42.6392C49.1353 42.8502 49.3948 43.1505 49.449 43.8003C49.5554 44.4898 49.3554 45.1912 48.9007 45.7238C48.1363 45.8262 47.3831 45.9986 46.6509 46.2388C46.1746 46.3917 45.7091 46.5754 45.2571 46.7888C45.1333 46.7068 45.0151 46.6167 44.9034 46.5191ZM56.8316 52.1422C58.1652 53.1302 59.3325 53.7889 60.5671 53.6277C61.3241 53.5296 61.982 52.3419 62.4631 51.2628C62.7886 50.5201 62.785 49.7213 62.3146 49.462C62.074 49.3324 60.9562 49.3814 60.1709 49.462C58.6746 49.6372 57.0615 50.1627 56.7042 50.4255C56.0816 50.9195 56.3576 51.7778 56.8316 52.1317V52.1422ZM57.1853 41.6947V41.6457C57.0031 41.0726 57.0722 40.9258 57.1525 40.7555C57.161 40.7374 57.1697 40.719 57.1782 40.6997C57.2001 40.6504 57.2366 40.6033 57.2719 40.5576C57.3795 40.4185 57.476 40.2938 57.111 40.1672C57.0615 40.1511 57.0106 40.1394 56.9589 40.1322C57.2773 39.7363 58.243 39.6417 58.9328 39.957C60.527 40.6928 60.5446 42.0081 60.5574 42.9544C60.5592 43.0895 60.5609 43.2171 60.5671 43.3344C60.5881 43.5265 60.5881 43.7203 60.5671 43.9125C60.1653 43.7314 59.722 43.6601 59.283 43.7057C59.1016 43.7138 58.9209 43.7325 58.7418 43.7618C58.0697 43.4044 57.6558 42.7072 57.302 41.9645C57.2715 41.907 57.2488 41.8521 57.2273 41.7998C57.2239 41.7916 57.2205 41.7834 57.2171 41.7753L57.1853 41.6947Z" fill="#000"></path><path fill-rule="evenodd" clip-rule="evenodd" d="M100.181 67H88.5547V40.5H100.181C108.556 40.5 112.746 44.6752 112.751 53.0255C112.751 62.3395 108.561 66.9976 100.181 67ZM93.5256 62.7449H99.4331C104.995 62.7449 107.776 59.5075 107.776 53.0326C107.776 47.5213 104.994 44.7657 99.4295 44.7657H93.5256V62.7449Z" fill="#000"></path><path fill-rule="evenodd" clip-rule="evenodd" d="M117.832 67H112.75L124.084 40.5H129.404L140.979 67H135.659L132.299 59.7695H123.751L125.448 55.5109H130.995L126.625 45.5553L117.832 67Z" fill="#000"></path><path fill-rule="evenodd" clip-rule="evenodd" d="M138.461 40.5H158.624V44.7586H151.007V67H146.085V44.7586H138.461V40.5Z" fill="#000"></path><path fill-rule="evenodd" clip-rule="evenodd" d="M161.181 67H156.102L167.433 40.5H172.754L184.33 67H179.006L175.646 59.7695H167.093L168.791 55.5109H174.338L169.971 45.5553L161.181 67Z" fill="#000"></path><path fill-rule="evenodd" clip-rule="evenodd" d="M198.985 67H187.355V40.5H198.982C207.361 40.5 211.551 44.6752 211.551 53.0255C211.551 62.3395 207.363 66.9976 198.985 67ZM192.326 62.7449H198.234C203.796 62.7449 206.579 59.5075 206.584 53.0326C206.584 47.5213 203.801 44.7657 198.234 44.7657H192.326V62.7449Z" fill="#000"></path><path fill-rule="evenodd" clip-rule="evenodd" d="M214.574 53.79C214.574 44.9277 219.063 40.4977 228.039 40.5C236.876 40.5 241.293 44.93 241.291 53.79C241.291 62.5967 236.873 67 228.039 67C219.461 67.0046 214.973 62.6013 214.574 53.79ZM228.025 62.7936C233.421 62.7936 236.12 59.7542 236.122 53.6753C236.122 47.6914 233.423 44.6982 228.025 44.6959C222.487 44.6959 219.719 47.689 219.721 53.6753C219.728 59.7565 222.496 62.796 228.025 62.7936Z" fill="#000"></path><path fill-rule="evenodd" clip-rule="evenodd" d="M262.06 56.2517V62.3678C261.064 62.6385 260.036 62.7845 259.003 62.8021C252.964 62.8021 249.945 59.6665 249.948 53.3952C249.948 47.6034 253.147 44.7076 259.544 44.7076C262.106 44.6853 264.644 45.1834 267 46.1706V41.7781C264.49 40.893 261.839 40.461 259.173 40.5028C249.607 40.5028 244.823 44.7979 244.82 53.3882C244.82 62.4604 249.523 66.9977 258.928 67C262.163 67 264.853 66.5367 267 65.61V51.953H259.024L257.354 56.2517H262.06Z" fill="#000"></path></svg>