<svg xmlns="http://www.w3.org/2000/svg" width="100%" viewBox="0 0 286 107"><path d="M59.0675 45.328C56.6286 40.8041 51.8511 37.9833 46.6562 38.0001H7.34568C6.79937 38.0027 6.30833 38.3293 6.1011 38.8278C5.89387 39.3264 6.01116 39.899 6.39839 40.2791L14.9425 48.7722C15.6996 49.5232 16.7292 49.9452 17.803 49.9447H45.5158C46.7925 49.9316 47.9794 50.5913 48.6292 51.6753C49.2791 52.7593 49.2933 54.103 48.6664 55.2001C48.0395 56.2972 46.8668 56.9811 45.59 56.9942H26.4883C25.9406 56.9938 25.4469 57.3193 25.2377 57.8186C25.0286 58.3178 25.1454 58.8921 25.5336 59.2732L34.1 67.7736C34.8557 68.5244 35.8841 68.9465 36.9567 68.9461H45.5975C56.8386 68.9461 65.3382 57.0931 59.0675 45.3244" fill="#000"></path><path fill-rule="evenodd" clip-rule="evenodd" d="M97.7201 53.4657C97.7201 47.3176 92.7682 42.4261 86.2041 42.4261L78.4438 42.4298C78.134 42.4298 77.8828 42.6775 77.8828 42.9831V63.985C77.8828 64.2906 78.134 64.5383 78.4438 64.5383H86.2041C92.7571 64.5383 97.7201 59.6139 97.7201 53.4657ZM82.6824 60.2588V46.68H86.4493C88.2223 46.7327 89.9015 47.478 91.1172 48.752C92.333 50.0261 92.9857 51.7243 92.9317 53.4731C92.9525 55.253 92.2552 56.9681 90.9934 58.2408C89.7316 59.5135 88.0087 60.2394 86.2041 60.2588H82.6824Z" fill="#000"></path><path fill-rule="evenodd" clip-rule="evenodd" d="M126.848 53.4365C126.848 47.1307 121.565 41.8949 114.656 41.8949L114.659 41.9096C107.794 41.9096 102.512 47.1197 102.512 53.4511C102.512 59.7825 107.746 64.978 114.656 64.978C121.565 64.978 126.848 59.7422 126.848 53.4365ZM122.041 53.4707C122.03 57.4829 118.723 60.7269 114.656 60.7168C112.701 60.7119 110.829 59.9413 109.451 58.5745C108.073 57.2077 107.302 55.3567 107.308 53.4291C107.32 49.4169 110.627 46.174 114.695 46.1855C118.763 46.1969 122.052 49.4584 122.041 53.4707Z" fill="#000"></path><path fill-rule="evenodd" clip-rule="evenodd" d="M155.8 53.4365C155.8 47.1051 150.517 41.8949 143.63 41.8949L143.634 41.8986C136.724 41.8986 131.441 47.1088 131.441 53.4401C131.441 59.7715 136.765 64.978 143.63 64.978C150.495 64.978 155.8 59.7678 155.8 53.4365ZM150.982 53.4438C150.986 57.4537 147.695 60.7087 143.63 60.7168H143.6C139.535 60.7087 136.244 57.4537 136.248 53.4438C136.253 49.4339 139.549 46.1854 143.615 46.1854C147.68 46.1854 150.977 49.4339 150.982 53.4438Z" fill="#000"></path><path fill-rule="evenodd" clip-rule="evenodd" d="M162.702 42.4298C162.392 42.4298 162.141 42.6775 162.141 42.9831L162.159 63.9631C162.159 64.2686 162.41 64.5163 162.72 64.5163H166.368C166.678 64.5163 166.929 64.2686 166.929 63.9631V56.8219H171.09L175.247 64.2598C175.345 64.4461 175.543 64.5611 175.756 64.5566H179.541C179.754 64.5722 179.958 64.4666 180.066 64.2844C180.175 64.1022 180.168 63.8752 180.05 63.6993L175.741 56.1698C178.221 54.9452 179.775 52.4311 179.742 49.6955C179.742 45.6505 176.517 42.4298 172.059 42.4298H162.702ZM166.944 46.6764H171.911L171.896 46.6984H172.1C173.724 46.754 174.995 48.0975 174.938 49.6992V49.8054C174.864 51.3832 173.511 52.605 171.911 52.5387H166.944V46.6764Z" fill="#000"></path><path fill-rule="evenodd" clip-rule="evenodd" d="M207.291 53.6014C207.291 47.4239 202.339 42.5288 195.775 42.5288L188.034 42.5398C187.724 42.5398 187.473 42.7875 187.473 43.0931V64.1207C187.473 64.4262 187.724 64.6739 188.034 64.6739H195.775C202.328 64.6739 207.291 59.7789 207.291 53.6014ZM192.254 60.3504V46.7937H196.028C197.804 46.8435 199.486 47.5881 200.704 48.8632C201.923 50.1383 202.577 51.8392 202.522 53.5904C202.55 57.2942 199.531 60.3202 195.775 60.3504H192.254Z" fill="#000"></path><path fill-rule="evenodd" clip-rule="evenodd" d="M215.844 64.1133L217.627 59.2768L226.253 59.3061L228.036 64.1426C228.12 64.374 228.349 64.5233 228.597 64.509H232.461C232.66 64.5267 232.853 64.4387 232.969 64.2779C233.084 64.1172 233.105 63.9079 233.022 63.7285L224.663 42.7632C224.58 42.5318 224.351 42.3825 224.102 42.3968H219.771C219.522 42.3825 219.294 42.5318 219.21 42.7632L210.855 63.6992C210.772 63.8786 210.792 64.0878 210.908 64.2486C211.024 64.4094 211.217 64.4974 211.416 64.4797H215.283C215.532 64.494 215.76 64.3447 215.844 64.1133ZM219.236 55.1841L221.951 47.9184L224.678 55.1841H219.236Z" fill="#000"></path><path d="M237.514 48.3911C237.514 44.9177 240.557 41.9169 245.371 41.9169C247.946 41.8561 250.445 42.7834 252.34 44.5037C252.564 44.7109 252.577 45.0571 252.37 45.2804L252.34 45.3097L250.178 47.4092C249.96 47.6215 249.609 47.6215 249.391 47.4092C248.372 46.4972 247.051 45.9838 245.676 45.9656C243.755 45.9656 242.333 47.0648 242.333 48.3362C242.333 52.4398 253.689 50.0729 253.689 57.9725C253.689 61.9735 250.62 65.0037 245.197 65.0037C242.173 65.0462 239.256 63.8992 237.091 61.816C236.867 61.6087 236.854 61.2626 237.061 61.0392L239.164 58.9654C239.377 58.7479 239.728 58.7398 239.951 58.9471L239.97 58.9654C241.291 60.2086 243.044 60.9072 244.87 60.9183C247.273 60.9183 248.856 59.6542 248.856 58.0714C248.856 53.9677 237.503 56.3347 237.503 48.4351" fill="#000"></path><path d="M274.275 42.9611V51.2637H264.665V42.9611C264.665 42.6555 264.414 42.4078 264.104 42.4078H260.471C260.161 42.4078 259.91 42.6555 259.91 42.9611V63.9264C259.91 64.232 260.161 64.4797 260.471 64.4797H264.119C264.429 64.4797 264.68 64.232 264.68 63.9264V55.4992H274.287V63.9264C274.287 64.232 274.538 64.4797 274.848 64.4797H278.496C278.805 64.4797 279.056 64.232 279.056 63.9264V42.9611C279.056 42.6555 278.805 42.4078 278.496 42.4078H274.848C274.697 42.4049 274.551 42.4619 274.444 42.5659C274.336 42.67 274.275 42.8124 274.275 42.9611Z" fill="#000"></path></svg>