<svg width="95" height="24" viewBox="0 0 95 24" fill="none" xmlns="http://www.w3.org/2000/svg"><path fill-rule="evenodd" clip-rule="evenodd" d="M77.04 11.55a8.9 8.9 0 0 1 8.86-8.93c4.89 0 8.86 4 8.86 8.93a8.9 8.9 0 0 1-8.86 8.93c-4.9 0-8.86-4-8.86-8.93z" fill="#FF8473"></path><path fill-rule="evenodd" clip-rule="evenodd" d="M0 11.55A11.5 11.5 0 0 1 11.46 0a11.5 11.5 0 0 1 11.46 11.55A11.5 11.5 0 0 1 11.46 23.1 11.5 11.5 0 0 1 0 11.55z" fill="#FF8473"></path><path fill-rule="evenodd" clip-rule="evenodd" d="M51.36 11.55c0-5.41 4.35-9.8 9.73-9.8a9.77 9.77 0 0 1 9.72 9.8c0 5.42-4.35 9.8-9.72 9.8a9.77 9.77 0 0 1-9.73-9.8z" fill="#FF8473"></path><path fill-rule="evenodd" clip-rule="evenodd" d="M25.68 11.55c0-5.9 4.74-10.68 10.6-10.68 5.84 0 10.59 4.78 10.59 10.68 0 5.9-4.75 10.68-10.6 10.68s-10.59-4.78-10.59-10.68z" fill="#FF8473"></path></svg>