<svg xmlns="http://www.w3.org/2000/svg" width="100%" viewBox="0 0 286 107"><path fill-rule="evenodd" clip-rule="evenodd" d="M258.584 57.1329H257.87L257.788 63.5557H258.713C258.956 62.8284 259.166 62.6004 259.881 62.6004C260.337 62.6004 260.754 62.7643 261.277 62.9701C262.16 63.3173 263.346 63.7837 265.535 63.7837H265.685C268.803 63.9226 271.443 61.4753 271.582 58.3162C271.582 54.2717 268.329 52.5337 265.533 51.0392C263.425 49.9131 261.577 48.9253 261.574 47.1931C261.498 46.421 261.767 45.655 262.306 45.1046C262.846 44.5542 263.601 44.2771 264.363 44.3489C267.228 44.3489 269.081 46.4802 270.01 49.299H270.724V43.1476H270.01C269.81 43.6489 269.368 44.0101 268.842 44.1029C267.19 43.6291 265.5 43.3034 263.792 43.1295H263.71C262.318 43.0424 260.948 43.5192 259.903 44.4551C258.858 45.3909 258.223 46.709 258.138 48.1194C258.138 51.1315 260.938 52.7472 263.576 54.2685C265.922 55.622 268.138 56.9008 268.138 59.0218C268.206 59.9188 267.885 60.8013 267.259 61.4391C266.633 62.077 265.763 62.4072 264.878 62.3435C261.926 62.0721 259.434 60.0091 258.584 57.1329ZM155.203 63.3748V62.6511C153.81 62.6511 153.317 61.9274 152.638 60.053L145.909 43.1368H144.984L137.766 60.6646C137.424 61.7105 136.511 62.4576 135.43 62.5751V63.2988H141.705V62.5751C140.312 62.5751 139.612 62.3471 139.612 61.1639C139.896 59.9475 140.286 58.7595 140.78 57.6142H147.752C148.246 58.7595 148.637 59.9475 148.92 61.1639C148.92 62.3471 148.206 62.5751 146.827 62.5751V63.2988L155.203 63.3748ZM83.5835 62.6775V63.3133L83.5443 63.3132V62.6837L83.5835 62.6775ZM86.0444 59.5139C86.0444 61.4125 85.6599 62.3463 83.5835 62.6775V62.5896C82.1906 62.5896 81.6977 61.8659 81.0191 59.9915L74.2329 43.1512H73.3079L66.0895 60.679C65.7482 61.7249 64.8348 62.4721 63.7537 62.5896V63.3133H69.8255V62.5896C68.6576 62.5896 67.9397 62.3616 67.9397 61.1784C68.2111 59.9561 68.59 58.7608 69.0719 57.607H76.0616C76.5545 58.7526 76.9453 59.9406 77.2295 61.1567C77.2295 62.3399 76.5152 62.5679 75.1366 62.5679V63.2915L83.5443 63.3132V63.4073H90.384V62.6837C88.291 62.4557 87.8195 61.5221 87.8195 59.6116V48.1556L101.01 63.7909H101.935V47.2003C101.935 45.3115 102.406 44.5841 104.499 44.3562V43.6325H97.7345V44.3562C99.8275 44.6022 100.299 45.2897 100.299 47.2003L100.238 57.1221L88.8374 43.6253H83.48V44.2259C84.591 44.4014 85.548 45.1143 86.0444 46.1365V59.5139ZM23.5046 62.5932C21.1866 62.3652 20.7151 62.1373 20.7151 60.2267V53.8257H23.9725C26.537 53.8257 27.6299 54.2852 28.1763 56.6517H28.855V49.5414H28.1406C27.7263 51.6799 26.9906 52.1576 23.9582 52.1576H20.7687V46.0062C20.7687 45.2789 21.0116 45.0509 21.9367 45.0509H24.6511C28.5799 45.0509 29.2943 45.7565 30.0086 47.8769H30.7229V43.618H14.4219V44.3417C16.3041 44.3417 16.7577 44.5697 16.7577 46.7082V60.2267C16.7577 62.1156 16.3077 62.3652 14.4219 62.5932V63.3169H23.5046V62.5932ZM42.1237 62.5932C39.8057 62.3652 39.3342 62.1373 39.3342 60.2267V46.7082C39.3342 44.5697 39.8057 44.3417 42.1237 44.3417V43.618H32.5873V44.3417C34.9054 44.3417 35.3768 44.5697 35.3768 46.7082V60.2267C35.3768 62.1156 34.9054 62.3652 32.5873 62.5932V63.3169H42.1237V62.5932ZM60.9678 47.2003C60.9678 45.2897 60.2534 44.6022 58.1783 44.3562V43.6325H65.168V44.3562C63.0751 44.5841 62.3786 45.3115 62.3786 47.2003V63.7909H61.4607L48.2705 48.1556V59.6116C48.2705 61.5221 48.9848 62.4557 51.06 62.6837V63.4073H43.9881V62.6837C46.0811 62.4557 46.7776 61.5004 46.7776 59.6116V46.2305C46.1959 45.1848 45.1627 44.4771 43.9881 44.32V43.6253H49.3456L60.9713 57.1221L60.9678 47.2003ZM69.5826 56.2102L72.615 48.3835L75.4044 56.2102H69.5826ZM123.8 58.6563C122.246 62.0083 118.839 64.0695 115.189 63.8669C108.914 63.8669 105.189 59.608 105.189 53.4421C105.183 50.7227 106.244 48.1125 108.138 46.1859C110.033 44.2592 112.605 43.1741 115.289 43.1693H115.439C117.255 43.4097 119.047 43.8056 120.797 44.3526C121.216 44.3526 121.454 43.9755 121.82 43.3965C121.866 43.3238 121.914 43.248 121.965 43.1693H122.89L123.358 49.5523H122.433C121.558 46.5958 118.946 44.5138 115.904 44.3489C111.26 44.3489 109.382 49.5595 109.382 53.3589C109.382 58.5695 111.475 62.1228 116.354 62.1228C119.106 61.9454 121.611 60.4514 123.1 58.0991L123.8 58.6563ZM134.962 62.6692C132.644 62.4412 131.93 62.2133 131.93 60.3027L131.997 46.7082C131.997 44.5697 132.694 44.3417 135.03 44.3417V43.618H125.211V44.3417C127.49 44.3417 128.244 44.5697 128.244 46.7082V60.3027C128.244 62.1915 127.547 62.4412 125.211 62.6692V63.3929H134.962V62.6692ZM144.305 48.369L141.273 56.1958H147.095L144.305 48.369ZM156.181 63.2988V62.5751C158.067 62.3471 158.746 62.0975 158.746 60.2086V46.7082C158.746 44.5697 158.031 44.3417 156.181 44.3417V43.618H165.182V44.3417C163.089 44.3417 162.392 44.5697 162.392 46.7082V60.4583C162.392 61.6415 162.864 62.1192 164.957 62.1192C168.443 62.1192 170.611 61.3955 172.175 58.0918H172.889L171.496 63.3024L156.181 63.2988ZM187.805 60.2086C187.805 62.0975 187.144 62.3254 185.033 62.5751L185.026 63.306H194.366V62.5823C192.291 62.3544 191.576 62.1264 191.576 60.2159V45.0582H194.094C196.187 45.0582 197.202 45.9917 197.787 48.6079H198.502L198.277 43.6253H181.315L180.797 48.6223H181.511C182.247 46.0279 183.186 45.0726 185.279 45.0726H187.805V60.2086ZM206.649 60.2086C206.649 62.1192 207.12 62.3471 209.438 62.5751V63.2988H199.934V62.5751C202.27 62.3471 202.723 62.0975 202.723 60.2086V46.7082C202.723 44.5697 202.252 44.3417 199.934 44.3417V43.618H209.47V44.3417C207.152 44.3417 206.681 44.5697 206.681 46.7082L206.649 60.2086ZM235.54 43.618H228.793L223.364 57.1329L218.249 43.6253H211.26V44.32C213.11 44.32 213.824 44.8193 213.824 46.2305V59.5935C213.824 61.4823 213.353 62.4376 211.26 62.6656V63.3892H218.007V62.6656C215.914 62.4376 215.442 61.504 215.442 59.5935V46.2305L221.718 63.5268H222.753L229.275 46.2305V60.2267C229.275 62.1156 228.804 62.3652 226.711 62.5932V63.3169H235.54V62.5932C233.675 62.3652 233.204 62.1373 233.204 60.2267V46.7082C233.204 44.5697 233.654 44.3417 235.54 44.3417V43.618ZM238.329 63.2843V62.5606C240.215 62.3327 240.665 62.083 240.665 60.1942V46.7082C240.665 44.5697 240.194 44.3417 238.329 44.3417V43.618H254.63V47.8769H253.916C253.202 45.7384 252.523 45.0328 248.559 45.0328H245.769C244.844 45.0328 244.601 45.2608 244.601 45.9881V52.1395H247.862C250.894 52.1395 251.63 51.6618 252.045 49.5233H252.759V56.6517H252.045C251.573 54.2852 250.405 53.8076 247.862 53.8076H244.601V60.4511C244.601 61.6343 244.826 62.1119 248.369 62.1119C251.912 62.1119 254.023 61.3882 255.588 58.0846H256.302L255.152 63.2988L238.329 63.2843Z" fill="#000"></path></svg>