<svg xmlns="http://www.w3.org/2000/svg" width="100%" viewBox="0 0 286 107"><path fill-rule="evenodd" clip-rule="evenodd" d="M69.0673 31C57.7541 31 48.1109 39.1688 46.2996 50.2865C44.4884 61.4043 51.0438 72.1888 61.777 75.7487C62.9298 75.9611 63.3536 75.2501 63.3536 74.6453C63.3536 74.0965 63.3328 72.2849 63.321 70.3701C56.9049 71.7598 55.5506 67.6617 55.5506 67.6617C54.5015 65.0063 52.9901 64.3012 52.9901 64.3012C50.8978 62.8761 53.1472 62.9056 53.1472 62.9056C55.4617 63.0679 56.6827 65.2659 56.6827 65.2659C58.7394 68.7769 62.0793 67.762 63.3951 67.1748C63.6025 65.6996 64.1982 64.6788 64.8591 64.1035C59.7351 63.5134 54.3504 61.5543 54.3504 52.7562C54.3166 50.475 55.1655 48.2682 56.7212 46.5929C56.4811 46.0028 55.6928 43.6779 56.9435 40.515C56.9435 40.515 58.8816 39.8984 63.2884 42.8754C67.0713 41.8436 71.0633 41.8436 74.8462 42.8754C79.247 39.9043 81.1822 40.515 81.1822 40.515C82.4388 43.6779 81.6475 46.0146 81.4075 46.5929C82.9647 48.2672 83.8139 50.4746 83.7783 52.7562C83.7783 61.575 78.3817 63.5164 73.2459 64.0858C74.0727 64.7998 74.8106 66.1953 74.8106 68.3373C74.8106 71.4087 74.784 73.8811 74.784 74.6394C74.784 75.2501 75.1988 75.967 76.3665 75.7399C87.0792 72.163 93.6127 61.3874 91.8012 50.2839C89.9897 39.1804 80.3664 31.0175 69.0673 31Z" fill="#000"></path><path d="M55.205 63.6C55.1591 63.732 54.9947 63.7692 54.8465 63.6812C54.6983 63.5932 54.6093 63.4172 54.6578 63.2853C54.7064 63.1533 54.8681 63.1127 55.019 63.2041C55.1699 63.2954 55.2589 63.4714 55.205 63.6Z" fill="#000"></path><path d="M55.7348 64.8336C55.6412 64.9171 55.4565 64.8778 55.3325 64.7451C55.2073 64.6485 55.1818 64.4737 55.2743 64.3471C55.3704 64.2635 55.5501 64.3028 55.6791 64.4355C55.8081 64.5682 55.8335 64.7476 55.7348 64.8336Z" fill="#000"></path><path d="M56.8623 65.9993C56.75 66.0671 56.5676 65.9993 56.4553 65.8616C56.343 65.7238 56.343 65.5491 56.4553 65.4792C56.5676 65.4093 56.7477 65.4792 56.8623 65.6128C56.9769 65.7464 56.9746 65.9273 56.8623 65.9972V65.9993Z" fill="#000"></path><path d="M58.0548 67.1177C57.9686 67.2119 57.7861 67.1858 57.6537 67.0575C57.5234 66.9678 57.4848 66.7926 57.5655 66.6565C57.6517 66.5622 57.8362 66.5883 57.9666 66.7166C58.0969 66.845 58.1431 67.0214 58.0528 67.1177H58.0548Z" fill="#000"></path><path d="M59.8194 68.1506C59.7529 68.2949 59.448 68.3612 59.1397 68.2996C58.8313 68.2381 58.6281 68.0631 58.6912 67.9211C58.7542 67.7791 59.0626 67.7082 59.3744 67.772C59.6863 67.8359 59.886 68.0086 59.8194 68.1482V68.1506Z" fill="#000"></path><path d="M61.5588 68.6023C61.5588 68.7606 61.3069 68.8917 60.9894 68.8967C60.672 68.9016 60.4097 68.773 60.4063 68.6171C60.4028 68.4613 60.6582 68.3277 60.9791 68.3228C61.3 68.3178 61.5588 68.4465 61.5588 68.6048V68.6023Z" fill="#000"></path><path d="M63.285 67.9635C63.323 68.1164 63.1019 68.2717 62.7841 68.3129C62.4663 68.3542 62.183 68.2595 62.1416 68.1091C62.1001 67.9587 62.3281 67.7961 62.639 67.7573C62.9499 67.7185 63.2401 67.8107 63.2816 67.9635H63.285Z" fill="#000"></path><path d="M116.584 50.9496C116.285 50.9512 116.043 51.1916 116.042 51.4887V57.1374C116.042 57.4357 116.284 57.6779 116.584 57.6795H121.117V64.6997C121.117 64.6997 120.098 65.0433 117.275 65.0433C113.952 65.0433 109.312 63.8377 109.312 53.6984C109.312 43.5591 114.152 42.2203 118.688 42.2203C122.613 42.2203 124.306 42.9075 125.382 43.2392C125.541 43.2701 125.707 43.2287 125.832 43.1261C125.958 43.0235 126.031 42.8706 126.032 42.709L127.331 37.2498C127.335 37.084 127.257 36.9267 127.122 36.8292C126.684 36.5152 124.02 35.0342 117.287 35.0342C109.539 35.0342 101.566 38.3162 101.566 54.0894C101.566 69.8627 110.68 72.2175 118.363 72.2175C124.723 72.2175 128.58 69.5161 128.58 69.5161C128.704 69.4183 128.771 69.2644 128.756 69.1073V51.4917C128.757 51.1951 128.518 50.9528 128.219 50.9496H116.584Z" fill="#000"></path><path d="M188.122 36.9447C188.133 36.648 187.902 36.3977 187.603 36.3849H181.07C180.77 36.3681 180.513 36.596 180.495 36.8944C180.495 36.9122 180.495 36.929 180.495 36.9447V49.5011H170.291V36.9447C170.292 36.6482 170.053 36.4059 169.754 36.4027H163.221C163.077 36.3995 162.937 36.4536 162.832 36.553C162.728 36.6525 162.667 36.7891 162.664 36.9329V70.9675C162.663 71.1113 162.72 71.2495 162.822 71.3517C162.923 71.4539 163.062 71.5118 163.206 71.5126H169.736C169.881 71.5118 170.019 71.4539 170.121 71.3517C170.223 71.2495 170.279 71.1113 170.279 70.9675V56.4117H180.495V70.9705C180.494 71.1143 180.551 71.2525 180.653 71.3547C180.754 71.4569 180.893 71.5147 181.038 71.5155H187.594C187.739 71.5147 187.877 71.4569 187.979 71.3547C188.081 71.2525 188.137 71.1143 188.137 70.9705L188.122 36.9447Z" fill="#000"></path><path d="M136.337 45.6326C138.668 45.6326 140.557 43.7348 140.557 41.3938C140.557 39.0528 138.668 37.155 136.337 37.155C134.007 37.155 132.117 39.0528 132.117 41.3938C132.117 43.7348 134.007 45.6326 136.337 45.6326Z" fill="#000"></path><path d="M140.091 48.0704C140.091 47.7722 139.848 47.5299 139.548 47.5283H133.018C132.706 47.5562 132.463 47.8094 132.449 48.1207V70.6328C132.449 71.2933 132.863 71.4918 133.403 71.4918H139.286C139.933 71.4918 140.088 71.1778 140.088 70.6209L140.091 48.0704Z" fill="#000"></path><path d="M212.995 47.5817H206.498C206.353 47.5825 206.215 47.6403 206.113 47.7426C206.011 47.8448 205.955 47.983 205.955 48.1267V64.8093C204.768 65.5789 203.382 65.9904 201.965 65.9942C199.622 65.9942 198.999 64.9367 198.999 62.6588V48.1238C199 47.98 198.943 47.8418 198.842 47.7396C198.74 47.6374 198.602 47.5795 198.457 47.5787H191.871C191.726 47.5795 191.587 47.6374 191.486 47.7396C191.384 47.8418 191.327 47.98 191.328 48.1238V63.7756C191.328 70.544 195.122 72.1998 200.346 72.1998C204.629 72.1998 208.095 69.8479 208.095 69.8479C208.151 70.3137 208.23 70.7764 208.334 71.2341C208.429 71.409 208.61 71.5214 208.811 71.5304H212.995C213.295 71.5287 213.537 71.2865 213.537 70.9883V48.1238C213.537 47.8255 213.295 47.5833 212.995 47.5817Z" fill="#000"></path><path fill-rule="evenodd" clip-rule="evenodd" d="M224.55 48.4526C226.432 47.3676 228.572 46.8021 230.749 46.8145C234.453 46.8145 239.919 48.1801 239.919 58.6719C239.919 69.1636 236.492 72.1731 230.531 72.1731C225.447 72.1731 222.764 69.6465 222.764 69.6465C222.712 70.1759 222.619 70.7007 222.487 71.2164C222.396 71.3957 222.212 71.5098 222.01 71.5126H217.456C217.312 71.5118 217.173 71.4539 217.072 71.3517C216.97 71.2495 216.913 71.1113 216.914 70.9676V36.9418C216.914 36.6441 217.157 36.4027 217.456 36.4027H224.013C224.312 36.406 224.551 36.6482 224.55 36.9448V48.4526ZM224.407 64.9101C225.552 65.5867 226.853 65.96 228.186 65.9942L228.2 66.0001C231.336 66.0949 232.355 64.9367 232.373 59.0777C232.373 53.5296 230.102 52.8276 227.762 53.0379C226.581 53.1661 225.438 53.5351 224.407 54.122V64.9101Z" fill="#000"></path><path d="M153.992 47.5254V41.0769C153.992 40.834 153.864 40.6948 153.581 40.6948H146.884C146.622 40.6948 146.5 40.8103 146.5 41.0562V47.7358C146.5 47.7358 143.147 48.5415 142.924 48.6066C142.695 48.6768 142.539 48.8871 142.539 49.125V53.3253C142.545 53.6056 142.764 53.8356 143.046 53.8555H146.503V63.9267C146.503 71.4089 151.784 72.1406 155.336 72.1406C156.658 72.1008 157.969 71.8866 159.235 71.5037C159.426 71.418 159.545 71.2236 159.533 71.015V66.4178C159.528 66.1215 159.288 65.8821 158.99 65.8757C158.692 65.8757 157.971 65.9912 157.22 65.9912C154.809 65.9912 153.989 64.8775 153.989 63.4349V53.8584H158.898C159.198 53.8568 159.44 53.6146 159.44 53.3164V48.0705C159.444 47.7739 159.205 47.5303 158.907 47.5254H153.992Z" fill="#000"></path></svg>