<svg width="192" height="32" fill="none" xmlns="http://www.w3.org/2000/svg"><path d="M26.907 19.858c-2.975 5.244-9.014 9.778-11.97 11.555A39.94 39.94 0 0 1 5.453 21.13l.45-8.773a84.633 84.633 0 0 0 9.708 13.333c2.11-.996 6.968-3.493 11.295-5.831z" fill="#fff"/><path d="M4.065 19.973C.992 14.8.045 7.378 0 3.973a37.792 37.792 0 0 1 13.359-2.87l7.437 4.817A80.946 80.946 0 0 0 4.686 7.413c-.18 2.303-.46 7.707-.622 12.552" fill="#fff"/><path d="M15.26.898C21.337.72 28.395 3.467 31.487 5.067a37.56 37.56 0 0 1-4.11 12.942l-7.86 4.124a83.221 83.221 0 0 0 6.616-14.72C24.167 6.16 19.497 3.324 15.26.863M46.801 18.418v-3.111h8.852v7.91a10.978 10.978 0 0 1-8.888 4.09c-6.31 0-11.15-4.294-11.15-10.667-.003-5.891 4.837-10.669 10.811-10.672.113 0 .226.002.339.005a11.061 11.061 0 0 1 8.5 3.885l-2.578 2.213a7.955 7.955 0 0 0-5.922-2.88c-3.983-.004-7.215 3.176-7.219 7.104 0 .112.002.224.008.336 0 4.498 2.956 7.44 7.211 7.44a7.658 7.658 0 0 0 5.192-2v-3.653h-5.156z" fill="#fff"/><path fill-rule="evenodd" clip-rule="evenodd" d="M65.078 27.214c4.395-.003 7.957-3.52 7.954-7.854 0-4.335-3.563-7.849-7.96-7.849-4.395 0-7.959 3.514-7.959 7.849v.01c.003 4.335 3.569 7.846 7.965 7.844zM60.8 19.36c0-2.64 1.803-4.791 4.273-4.791 2.506 0 4.318 2.115 4.318 4.791s-1.794 4.827-4.291 4.827c-2.497 0-4.3-2.187-4.3-4.827z" fill="#fff"/><path d="M85.345 18.418v-3.111h8.861v7.91a10.987 10.987 0 0 1-8.888 4.09c-6.31 0-11.15-4.294-11.15-10.667-.003-5.891 4.838-10.669 10.812-10.672.112 0 .225.002.338.005a11.088 11.088 0 0 1 8.5 3.885l-2.596 2.178a7.956 7.956 0 0 0-5.904-2.845c-3.982-.004-7.215 3.176-7.219 7.104 0 .112.003.224.008.336 0 4.498 2.957 7.44 7.211 7.44a7.668 7.668 0 0 0 5.228-1.973v-3.68h-5.2zM106.772 26.969l-.181-2.24a5.924 5.924 0 0 1-4.894 2.595 5.195 5.195 0 0 1-4.237-1.946c-1.126-1.467-1.37-3.467-1.37-5.671v-7.903h3.606v7.618a7.415 7.415 0 0 0 .604 3.618 2.462 2.462 0 0 0 2.325 1.147 4.767 4.767 0 0 0 3.813-2.32V11.804h3.606V26.97h-3.272z" fill="#fff"/><path fill-rule="evenodd" clip-rule="evenodd" d="M121.411 25.556l.18 1.413h3.218V17.84c0-3.938-1.875-6.355-6.229-6.355a15.291 15.291 0 0 0-6.382 1.502l.983 2.666a10.694 10.694 0 0 1 4.741-1.324c2.38 0 3.281 1.236 3.281 3.298v.355c-.95-.21-1.92-.32-2.893-.329-3.254 0-6.77 1.174-6.77 4.943 0 3.173 2.65 4.737 5.517 4.737a5.356 5.356 0 0 0 4.354-1.777zm-2.578-5.61c.795.012 1.588.11 2.361.294v2.916a5.36 5.36 0 0 1-3.488 1.502c-1.406 0-2.632-.676-2.632-2.205 0-1.973 2.064-2.506 3.759-2.506z" fill="#fff"/><path d="M130.208 13.956c.902-1.476 2.146-2.507 3.723-2.507a5.896 5.896 0 0 1 1.803.267l-.802 3.324a2.92 2.92 0 0 0-1.46-.329 3.608 3.608 0 0 0-3.164 2.036v10.222h-3.606V11.858h3.308l.198 2.098z" fill="#fff"/><path fill-rule="evenodd" clip-rule="evenodd" d="M147.38 26.969h3.308l-.027-22.08h-3.605v8.462a6.437 6.437 0 0 0-4.597-1.911c-4.417 0-7.428 3.733-7.428 7.885 0 4.444 3.137 8 7.374 8a5.717 5.717 0 0 0 4.795-2.303l.18 1.947zm-4.209-12.382a4.929 4.929 0 0 1 3.912 1.91v5.352a4.463 4.463 0 0 1-3.966 2.355c-2.714 0-4.39-2.293-4.39-4.764 0-2.329 1.433-4.853 4.444-4.853zM152.996 6.009v3.324h3.606V6.01h-3.606zm0 5.831v15.111l3.606.018V11.84h-3.606zM168.248 25.556l.18 1.413h3.227V17.84c0-3.938-1.884-6.355-6.238-6.355a15.33 15.33 0 0 0-6.382 1.502l.983 2.666a10.73 10.73 0 0 1 4.741-1.324c2.38 0 3.282 1.236 3.282 3.298v.355c-.95-.21-1.92-.32-2.894-.329-3.245 0-6.77 1.174-6.77 4.943 0 3.173 2.66 4.737 5.517 4.737a5.338 5.338 0 0 0 4.354-1.777zm-2.533-5.61c.793.011 1.582.11 2.353.294v2.916a5.365 5.365 0 0 1-3.489 1.502c-1.397 0-2.623-.676-2.623-2.205 0-1.973 2.055-2.506 3.759-2.506z" fill="#fff"/><path d="M176.829 11.805l.181 2.23a5.906 5.906 0 0 1 4.885-2.586 5.195 5.195 0 0 1 4.237 1.947c1.136 1.466 1.37 3.466 1.37 5.67v7.903h-3.606v-7.636a7.405 7.405 0 0 0-.595-3.617 2.48 2.48 0 0 0-2.325-1.147 4.776 4.776 0 0 0-3.822 2.32v10.08h-3.606V11.858l3.281-.053z" fill="#fff"/><path fill-rule="evenodd" clip-rule="evenodd" d="M187.54 9.61c0 1.027.847 1.862 1.887 1.862 1.041 0 1.888-.835 1.888-1.862 0-1.026-.847-1.86-1.888-1.86-1.04 0-1.887.834-1.887 1.86zm.244 0c0-.894.737-1.62 1.643-1.62.907 0 1.644.726 1.644 1.62 0 .894-.737 1.622-1.644 1.622a1.634 1.634 0 0 1-1.643-1.622z" fill="#fff"/><path fill-rule="evenodd" clip-rule="evenodd" d="M189.99 9.458a.647.647 0 0 1-.28.23l.604.987h-.306l-.532-.888h-.433v.888h-.243V8.48h.532a.911.911 0 0 1 .568.151.6.6 0 0 1 .189.48.627.627 0 0 1-.099.347zm-.947.115h.289a.516.516 0 0 0 .36-.115.41.41 0 0 0 .136-.338c0-.284-.172-.427-.505-.427h-.28v.88z" fill="#fff"/></svg>