<svg viewBox="0 0 237 180" fill="none" xmlns="http://www.w3.org/2000/svg" width="237"><path d="M235.9 88.47v11.16l-45.66 79.27H39.19v-4.62l.1-.16h147.08l49.38-85.65h.15z" fill="#2E0D4E"></path><path d="M190.24 180H39.19c-.6 0-1.1-.5-1.1-1.1v-4.62c0-.2.05-.39.15-.56l.1-.16c.2-.34.56-.54.95-.54h146.44l49.06-85.1c.2-.34.57-.55.96-.55h.15c.6 0 1.1.5 1.1 1.1v11.16c0 .2-.05.39-.15.56l-45.66 79.26c-.2.34-.56.55-.95.55zm-149.95-2.2H189.6l45.2-78.46v-7.01l-47.48 82.34c-.2.34-.56.55-.95.55H40.29v2.57z" fill="#2E0D4E"></path><path d="M235.75 88.47l-49.38 85.65H39.24l45.21-78.4 4.18-7.25h147.12z" fill="#fff"></path><path d="M186.37 175.22H39.25a1.1 1.1 0 0 1-.95-1.65l49.38-85.65c.2-.34.56-.55.95-.55h147.12a1.1 1.1 0 0 1 .96 1.65l-49.39 85.65c-.2.34-.56.55-.95.55zm-145.22-2.2h144.58l48.11-83.45H89.27l-48.12 83.45z" fill="#2E0D4E"></path><path d="M204.34 81.49h-13.58v-2.2h12.48V34.06H65.25v22.79h-2.2v-23.9c0-.6.49-1.1 1.1-1.1h140.19c.6 0 1.1.5 1.1 1.1v47.42c0 .61-.5 1.1-1.1 1.1z" fill="#2ae9aa"></path><path d="M151.52 174.62l-2.04-.84a14.81 14.81 0 0 0-1.77-13.74 14.76 14.76 0 0 0-12.26-6.41H98.09v-2.2h37.36c5.7 0 10.82 2.67 14.07 7.35a17.1 17.1 0 0 1 3.05 8.36 60.8 60.8 0 0 1 52.96-32.85h9.51v2.21h-9.49a58.6 58.6 0 0 0-52.44 34.58l-1.6 3.54z" fill="#2E0D4E"></path><path d="M226.72 114.2H74.06v2.2h152.66v-2.2z" fill="#2E0D4E"></path><path d="M134.26 103.88l-27.95 48.49 1.9 1.1 27.96-48.49-1.9-1.1z" fill="#2E0D4E"></path><path d="M89.29 68.25c7.8 0 14.13-6.33 14.13-14.15a14.14 14.14 0 1 0-14.13 14.15z" fill="#2ae9aa"></path><path d="M193 114.77l-15.7 27.22 1.9 1.1 15.7-27.22-1.9-1.1z" fill="#2E0D4E"></path><path d="M190.76 56.86H45.8v47.42h144.96V56.86z" fill="#fff"></path><path d="M190.76 105.38H45.8c-.6 0-1.1-.5-1.1-1.1V56.86c0-.61.49-1.1 1.1-1.1h144.96c.6 0 1.1.49 1.1 1.1v47.42c0 .6-.5 1.1-1.1 1.1zm-143.86-2.2h142.76V57.95H46.9v45.21z" fill="#2ae9aa"></path><path d="M70.2 95.09a14.14 14.14 0 1 0-14.13-14.15c0 7.81 6.33 14.15 14.13 14.15z" fill="#2ae9aa"></path><path d="M96.5 76.86c2.42-4 6.01-7.27 10.21-9.3 1.62-.78 3.64-1.35 5.11-.33 1.13.78 1.55 2.25 1.66 3.63.3 3.79-1.44 8.81-4.88 10.87-.77.46-1.79.61-2.55.15-.9-.56-1.17-1.8-.9-2.83 1.26-4.72 5.84-7.98 9.91-10.16 2.84-1.52 11.2-5.93 14.11-3.08 3.3 3.22-.34 16.35-3.85 12.42-1.43-2.4.44-5.44 2.59-7.23 2.33-1.93 5.17-3.38 8.2-3.55 3.02-.18 6.2 1.07 7.92 3.58 1.7 2.5 1.55 6.27-.68 8.32.23-1.84 1.89-3.14 3.5-4.07a29.7 29.7 0 0 1 23.87-2.46" fill="#fff"></path><path d="M107.12 83.27c-.59 0-1.16-.15-1.65-.45-1.25-.77-1.82-2.43-1.38-4.06.94-3.51 3.56-6.6 7.97-9.4-.18-.5-.45-.94-.86-1.22-1.07-.74-2.77-.19-4 .41a23.48 23.48 0 0 0-9.75 8.88l-1.89-1.14c2.52-4.16 6.3-7.61 10.67-9.73 3.2-1.54 5.14-.99 6.22-.24.65.44 1.16 1.09 1.53 1.9l.57-.31c5.1-2.73 12.23-5.99 15.4-2.9a5.3 5.3 0 0 1 1.34 2.55 13.4 13.4 0 0 1 4.76-1.22c3.6-.2 7.08 1.4 8.9 4.07a7.9 7.9 0 0 1 1.31 3.93l.04-.02a30.85 30.85 0 0 1 24.78-2.55l-.7 2.1a28.62 28.62 0 0 0-22.98 2.36c-.58.34-1.07.68-1.48 1.01a6.66 6.66 0 0 1-1.82 2.93 1.1 1.1 0 0 1-1.84-.95c.14-1.15.7-2.2 1.7-3.17.3-1.46.04-3.11-.84-4.4-1.39-2.05-4.12-3.26-6.94-3.1-1.7.1-3.26.63-4.6 1.32.03 1.62-.22 3.36-.65 4.91-.39 1.4-1.53 4.7-3.7 5.21-.56.13-1.65.17-2.73-1.02a1.11 1.11 0 0 1-.12-.17c-1.73-2.9.18-6.44 2.83-8.65.58-.48 1.27-1 2.05-1.49a3.71 3.71 0 0 0-.85-2.06c-.89-.87-3.74-1.6-12.82 3.26l-1.05.58.04.34c.31 4-1.48 9.55-5.41 11.9-.66.4-1.37.59-2.05.59zm5.29-11.5c-3.42 2.32-5.46 4.82-6.2 7.57-.15.57-.04 1.32.4 1.6.35.2.93.14 1.42-.16 2.82-1.68 4.36-5.73 4.38-9.02zm13.8 5.8c.15.15.35.31.51.28.44-.1 1.4-1.19 2.09-3.66.27-.97.44-1.96.51-2.9l-.7.56c-1.54 1.28-3.42 3.84-2.4 5.72z" fill="#2ae9aa"></path><path d="M170.57 89.2H96.44v2.21h74.13v-2.2z" fill="#2ae9aa"></path><path d="M98.09 153.8c-.4 0-.77-.2-.96-.56-.36-.63-8.62-15.55-8.62-22.49a9.6 9.6 0 0 1 9.58-9.6 9.6 9.6 0 0 1 9.58 9.6c0 6.94-8.27 21.86-8.62 22.5-.2.34-.57.56-.96.56zm0-30.43a7.4 7.4 0 0 0-7.38 7.38c0 5.05 5.18 15.45 7.38 19.63 2.2-4.18 7.38-14.58 7.38-19.63a7.4 7.4 0 0 0-7.38-7.38z" fill="#2ae9aa"></path><path d="M98.28 153.9H10.87c-3.9 0-7.4-2-9.36-5.37a10.78 10.78 0 0 1-.11-10.8l26.99-49.1a16.8 16.8 0 0 1 14.65-8.61h2.76v2.2h-2.76a14.6 14.6 0 0 0-12.73 7.48L3.32 138.8a8.6 8.6 0 0 0 .09 8.62 8.57 8.57 0 0 0 7.46 4.28h87.41v2.2z" fill="#2ae9aa"></path><path d="M217.48 32.87h-2.2c0-6.15-5-11.16-11.14-11.16v-2.2c7.35 0 13.34 6 13.34 13.36z" fill="#2ae9aa"></path><path d="M227.04 32.87h-2.2a20.74 20.74 0 0 0-20.7-20.74v-2.2a22.94 22.94 0 0 1 22.9 22.94z" fill="#2ae9aa"></path><path d="M236.95 32.87h-2.2a30.67 30.67 0 0 0-30.61-30.66V0a32.88 32.88 0 0 1 32.81 32.87z" fill="#2ae9aa"></path><path d="M98.28 135.15a4.41 4.41 0 1 1 .01-8.82 4.41 4.41 0 0 1-.01 8.82zm0-6.61a2.2 2.2 0 1 0 0 4.4 2.2 2.2 0 0 0 0-4.4z" fill="#2ae9aa"></path></svg>