<svg viewBox="0 0 244 164" fill="none" xmlns="http://www.w3.org/2000/svg" width="244"><path d="M128.13 72.75H6.42a5.27 5.27 0 0 1-4.78-7.53L7.6 52.8 4.07 60.7a4.87 4.87 0 0 0 4.48 6.85h117.84l.4.08 1.34 5.11z" fill="#ff9873"></path><path d="M128.13 73.86H6.42a6.4 6.4 0 0 1-5.8-9.12L6.6 52.31a1.12 1.12 0 0 1 2.03.93L5.1 61.17a3.69 3.69 0 0 0 .29 3.57 3.72 3.72 0 0 0 3.16 1.7H126.4c.08 0 .16.01.23.03l.4.08c.42.09.75.4.86.8l1.33 5.12a1.11 1.11 0 0 1-1.08 1.4zM2.99 64.98l-.34.72a4.16 4.16 0 0 0 3.77 5.93h120.26l-.77-2.97H8.55a6 6 0 0 1-5.56-3.68z" fill="#ff9873"></path><path d="M196.35 146.21H92.24l1.07-4.45h101.13c3.2 0 5.49-3.05 4.58-6.1l-1.27-4.26 2.95 9.08a4.5 4.5 0 0 1-4.35 5.73z" fill="#2E0D4E"></path><path d="M196.35 147.33H92.24c-.35 0-.67-.16-.89-.43a1.1 1.1 0 0 1-.2-.95l1.07-4.45c.12-.5.57-.85 1.09-.85h101.13a3.64 3.64 0 0 0 3.5-4.67l-1.26-4.26c-.17-.59.16-1.2.74-1.38.59-.18 1.21.14 1.4.72l2.94 9.07.02.04a5.6 5.6 0 0 1-5.43 7.16zm-102.7-2.23h102.7a3.38 3.38 0 0 0 3.28-4.3l-.21-.65-.26.37a5.86 5.86 0 0 1-4.73 2.35H94.2l-.54 2.23z" fill="#2E0D4E"></path><path d="M132.45 89.8h-.1a1.12 1.12 0 0 1-.98-.84l-5.3-20.3H8.55a6 6 0 0 1-5.5-8.4l14.82-33.3a6.03 6.03 0 0 1 5.5-3.56H154.3a6.02 6.02 0 0 1 5.06 2.75 5.93 5.93 0 0 1 .41 5.72l-26.31 57.27c-.18.4-.58.66-1.02.66zM23.37 25.63a3.8 3.8 0 0 0-3.46 2.24L5.09 61.17a3.69 3.69 0 0 0 .29 3.57 3.72 3.72 0 0 0 3.16 1.7h118.4c.51 0 .95.35 1.08.84l4.72 18.1 25-54.43a3.77 3.77 0 0 0-3.44-5.32H23.38z" fill="#ff9873"></path><path d="M87.68 164c-.5 0-.95-.34-1.08-.82l-15.92-58.17a5.86 5.86 0 0 1 5.69-7.4h108.1c2.59 0 4.91 1.72 5.65 4.2l9.97 33.54a5.86 5.86 0 0 1-5.66 7.53H94.07l-5.3 20.28c-.12.5-.57.84-1.07.84zM76.37 99.84a3.64 3.64 0 0 0-3.53 4.58l14.82 54.13 4.45-17.07c.13-.49.58-.83 1.08-.83h101.25a3.64 3.64 0 0 0 3.5-4.67l-9.96-33.54a3.68 3.68 0 0 0-3.51-2.6H76.37z" fill="#2E0D4E"></path><path d="M97.35 131a11.55 11.55 0 0 1-11.56-11.5c0-6.34 5.19-11.5 11.56-11.5 6.38 0 11.57 5.16 11.57 11.5S103.73 131 97.35 131zm0-20.78a9.31 9.31 0 0 0-9.32 9.28 9.31 9.31 0 0 0 9.32 9.27 9.31 9.31 0 0 0 9.33-9.27 9.31 9.31 0 0 0-9.33-9.28z" fill="#2E0D4E"></path><path d="M34.67 55.68c5.77 0 10.45-4.65 10.45-10.39S40.44 34.9 34.67 34.9a10.42 10.42 0 0 0-10.45 10.4c0 5.73 4.68 10.38 10.45 10.38z" fill="#ff9873"></path><path d="M213.73 121.72l-19.37-.17.02-2.22 19.36.17a8.81 8.81 0 0 0 8.22-5.7l19.25-48.6c1-2.7.64-5.62-1.03-8a8.69 8.69 0 0 0-7.21-3.75h-81.88v-2.22h81.87a10.9 10.9 0 0 1 9.05 4.7 10.77 10.77 0 0 1 1.28 10.08l-19.25 48.6a11.04 11.04 0 0 1-10.31 7.11z" fill="#ff9873"></path><path d="M194.18 124.32a3.53 3.53 0 0 0 3.55-3.53 3.53 3.53 0 0 0-3.55-3.52 3.53 3.53 0 0 0-3.54 3.52 3.53 3.53 0 0 0 3.54 3.53z" fill="#fff"></path><path d="M194.18 125.43a4.66 4.66 0 0 1-4.66-4.64 4.66 4.66 0 0 1 9.33 0c0 2.56-2.1 4.64-4.67 4.64zm0-7.05a2.42 2.42 0 0 0-2.42 2.41 2.42 2.42 0 0 0 4.85 0 2.42 2.42 0 0 0-2.43-2.4z" fill="#ff9873"></path><path d="M149.03 55.68a3.53 3.53 0 0 0 3.55-3.53 3.53 3.53 0 0 0-3.55-3.52 3.53 3.53 0 0 0-3.54 3.52 3.53 3.53 0 0 0 3.54 3.53z" fill="#fff"></path><path d="M149.03 56.8a4.66 4.66 0 0 1-4.66-4.65 4.66 4.66 0 0 1 9.33 0c0 2.56-2.1 4.64-4.67 4.64zm0-7.06a2.42 2.42 0 0 0-2.42 2.41 2.42 2.42 0 0 0 4.85 0 2.42 2.42 0 0 0-2.43-2.4z" fill="#ff9873"></path><path d="M64.69 56.4c-.66 0-1.3-.17-1.85-.5-1.4-.85-2.05-2.72-1.55-4.54 1.1-4.1 4.2-7.7 9.43-10.98a3.18 3.18 0 0 0-1.13-1.65c-1.34-.91-3.4-.25-4.9.48a27.74 27.74 0 0 0-11.56 10.45l-1.91-1.15a30.02 30.02 0 0 1 12.5-11.3c2.95-1.43 5.36-1.53 7.14-.3.79.53 1.4 1.32 1.81 2.33l.85-.46c5.95-3.17 14.28-6.96 17.93-3.42.8.76 1.3 1.85 1.59 3.1 1.7-.78 3.62-1.37 5.74-1.5 4.16-.23 8.21 1.6 10.32 4.69a9.02 9.02 0 0 1 1.54 4.8l.3-.17a36.43 36.43 0 0 1 29.05-2.97l-.7 2.11a34.13 34.13 0 0 0-27.24 2.79c-.71.4-1.31.82-1.8 1.23a7.64 7.64 0 0 1-2.12 3.39 1.12 1.12 0 0 1-1.86-.96 6.09 6.09 0 0 1 1.98-3.64 6.98 6.98 0 0 0-1-5.33c-1.68-2.45-4.94-3.9-8.34-3.7a13.9 13.9 0 0 0-5.6 1.6c.06 1.92-.24 3.98-.75 5.81-.45 1.6-1.76 5.4-4.24 5.98-.75.17-1.88.11-3.03-1.15a1.13 1.13 0 0 1-.12-.18c-1.99-3.3.23-7.34 3.3-9.88.7-.58 1.54-1.2 2.5-1.8a4.6 4.6 0 0 0-1.08-2.62c-2.52-2.44-10.68 1.32-15.32 3.79l-1.34.73.06.5c.36 4.65-1.72 11.05-6.3 13.77-.73.43-1.53.65-2.3.65zm6.4-13.61c-4.23 2.8-6.74 5.82-7.64 9.14-.2.73-.04 1.7.56 2.07.53.33 1.31.15 1.85-.17 3.47-2.07 5.32-7.1 5.24-11.04zm15.96 7.23c.3.3.56.44.78.39.72-.17 1.84-1.74 2.58-4.4.37-1.3.58-2.61.66-3.82-.42.3-.81.6-1.16.9-2.23 1.83-4.06 4.77-2.86 6.93z" fill="#ff9873"></path><path d="M163.03 125.06H119v2.23h44.03v-2.23z" fill="#2E0D4E"></path><path d="M174.97 113.19h-60.08v2.22h60.08v-2.22z" fill="#2E0D4E"></path><path d="M6.2 0L4.28 1.13 14.8 18.88l1.93-1.13L6.2 0z" fill="#ff9873"></path><path d="M25.34 5.22H23.1v11.5h2.24V5.22z" fill="#ff9873"></path></svg>