<svg viewBox="0 0 174 298" fill="none" xmlns="http://www.w3.org/2000/svg" width="174"><path d="M1.06 174.28A1.06 1.06 0 0 1 0 173.23V61.02c0-4.1 2.77-7.72 6.75-8.8l127.9-33.74a9.08 9.08 0 0 1 7.94 1.56 9.03 9.03 0 0 1 3.58 7.23v107.85c0 .48-.32.9-.78 1.02L1.33 174.25l-.27.03zm136-154.01c-.61 0-1.24.08-1.85.25L7.28 54.27a7.01 7.01 0 0 0-5.18 6.75v110.84l141.95-37.55V27.27c0-2.2-1-4.22-2.75-5.55a6.96 6.96 0 0 0-4.25-1.45z" fill="#2E0D4E"></path><path d="M144.2 27.15L.03 65.29l.54 2.03L144.74 29.2l-.55-2.04z" fill="#2E0D4E"></path><path d="M9.51 131.4c-.23 0-.46-.07-.65-.21-.25-.2-.4-.51-.4-.84V76.77c0-.49.32-.9.8-1.03l63.4-15.91a1.05 1.05 0 0 1 1.32 1.02v53.25c0 .48-.34.9-.8 1.02l-63.4 16.25c-.1.03-.18.04-.27.04zm1.06-53.81v51.4l61.28-15.7V62.2L10.57 77.59z" fill="#887eff"></path><path d="M100.56 298c-.18 0-.37-.05-.53-.15L61.8 275.27a1.05 1.05 0 0 1-.52-.9v-.3c0-.38.2-.72.53-.9l7.76-4.43 1.05 1.83-6.43 3.67 36.38 21.5 35.64-20.32-6.45-3.82 1.08-1.8 7.76 4.58c.32.19.52.53.52.9v.3c0 .37-.2.72-.53.9l-37.51 21.38c-.16.1-.35.14-.53.14z" fill="#887eff"></path><path d="M162.76 47.4L34.85 81.13a8.06 8.06 0 0 0-5.97 7.77v112.22l144.06-41.21V55.17c0-5.3-5.05-9.16-10.18-7.78z" fill="#fff"></path><path d="M28.88 202.18c-.22 0-.45-.08-.63-.22-.27-.2-.42-.5-.42-.84V88.92c0-4.1 2.77-7.72 6.74-8.8L162.5 46.38a9.08 9.08 0 0 1 7.93 1.56 9.04 9.04 0 0 1 3.58 7.23v104.75c0 .47-.31.88-.76 1.01l-144.06 41.2c-.1.03-.2.05-.3.05zm136-154.02c-.6 0-1.23.09-1.84.25h-.01L35.12 82.16a7.01 7.01 0 0 0-5.18 6.75v110.81l141.95-40.6V55.17c0-2.2-1-4.23-2.76-5.56a6.95 6.95 0 0 0-4.24-1.45z" fill="#2E0D4E"></path><path d="M172.16 55.04L28.01 93.18l.54 2.04 144.16-38.14-.55-2.04z" fill="#2E0D4E"></path><path d="M101.09 182.04h-2.11v52.06h2.1v-52.06z" fill="#887eff"></path><path d="M100.56 288.7c-.18 0-.37-.05-.53-.15L61.8 265.97a1.05 1.05 0 0 1-.52-.9v-.3c0-.37.2-.72.53-.9l7.76-4.43 1.05 1.83-6.43 3.67 36.38 21.5 35.64-20.32-6.45-3.81 1.08-1.82 7.76 4.6c.32.18.52.53.52.9v.28c0 .38-.2.73-.53.92l-37.51 21.37c-.16.1-.35.14-.53.14z" fill="#887eff"></path><path d="M100.56 279.4c-.18 0-.37-.04-.53-.14L61.8 256.68a1.05 1.05 0 0 1-.52-.91v-.29c0-.38.2-.73.53-.91l37.5-21.38c.34-.2.74-.19 1.07 0l38.22 22.59c.32.19.52.53.52.9v.3c0 .37-.2.72-.53.9l-37.51 21.39c-.16.1-.34.14-.53.14zM64.2 255.65l36.38 21.49 35.64-20.31-36.38-21.5-35.64 20.31z" fill="#887eff"></path><path d="M21.57 189.65c-2.9 0-5.73-.96-8.08-2.8a13.02 13.02 0 0 1-5.04-10.31v-6.1h2.12v6.1a11 11 0 0 0 13.67 10.68l3.71-.92.5 2.05-3.71.91c-1.06.26-2.12.39-3.17.39z" fill="#887eff"></path><path d="M44.28 115.81a5.88 5.88 0 0 1-5.89-5.89v-.28c0-2.7 1.84-5.05 4.47-5.7l53.8-13.52a5.88 5.88 0 0 1 2.92 11.4l-53.82 13.8c-.49.13-.98.2-1.48.2zm53.84-23.46c-.31 0-.63.04-.94.12l-53.81 13.5a3.77 3.77 0 0 0-2.86 3.67v.28a3.78 3.78 0 0 0 4.73 3.66L99.05 99.8a3.78 3.78 0 0 0-.93-7.44z" fill="#887eff"></path><path d="M114.37 98.12a5.87 5.87 0 0 1-5.88-5.88V92a5.89 5.89 0 0 1 4.4-5.7l27.73-7.18a5.86 5.86 0 0 1 5.09 1.04 5.9 5.9 0 0 1-2.07 10.33l-27.72 7.44c-.52.14-1.04.2-1.55.2zm27.74-17.1c-.32 0-.65.05-.96.13l-27.72 7.19a3.78 3.78 0 0 0-2.83 3.65v.25a3.77 3.77 0 0 0 4.77 3.65l27.72-7.44a3.78 3.78 0 0 0-.98-7.43z" fill="#887eff"></path><path d="M44.28 134.22c-1.3 0-2.56-.43-3.6-1.24a5.85 5.85 0 0 1-2.29-4.65v-.29c0-2.7 1.84-5.04 4.47-5.7l18.67-4.8a5.87 5.87 0 0 1 7.34 5.72 5.89 5.89 0 0 1-4.43 5.7l-18.66 5.07c-.5.12-1 .19-1.5.19zm18.7-14.74c-.3 0-.62.03-.93.11l-18.67 4.79a3.78 3.78 0 0 0-2.87 3.66v.29a3.77 3.77 0 0 0 4.73 3.66l18.67-5.07a3.78 3.78 0 0 0-.92-7.44z" fill="#887eff"></path><path d="M79.15 125.25a5.88 5.88 0 0 1-5.89-5.88v-.25a5.89 5.89 0 0 1 4.41-5.7l50.22-12.5a5.86 5.86 0 0 1 5.08 1.05 5.9 5.9 0 0 1-2.07 10.33l-50.22 12.75c-.5.14-1.02.2-1.53.2zm50.23-22.4c-.32 0-.65.04-.96.12l-50.22 12.5a3.77 3.77 0 0 0-2.82 3.65v.25a3.77 3.77 0 0 0 4.77 3.65l50.22-12.76a3.78 3.78 0 0 0-1-7.41z" fill="#887eff"></path><path d="M51.26 81.95l-14.08 3.73.54 2.04 14.08-3.73-.54-2.03z" fill="#2E0D4E"></path><path d="M22.67 53.75L8.6 57.48l.54 2.03L23.2 55.8l-.54-2.04z" fill="#2E0D4E"></path><path d="M99.86 186.6a4.75 4.75 0 1 0 0-9.5 4.75 4.75 0 0 0 0 9.5z" fill="#fff"></path><path d="M99.86 187.66a5.8 5.8 0 0 1-5.82-5.8 5.8 5.8 0 0 1 11.63 0c0 3.2-2.6 5.8-5.81 5.8zm0-9.49a3.7 3.7 0 1 0 0 7.4 3.7 3.7 0 0 0 0-7.4z" fill="#887eff"></path><path d="M78.8 23.87a10.72 10.72 0 0 0-15.11 0l-1.5-1.49a12.73 12.73 0 0 1 9.06-3.74c3.42 0 6.63 1.33 9.05 3.74l-1.5 1.5z" fill="#887eff"></path><path d="M85.3 17.4a19.93 19.93 0 0 0-28.1 0l-1.5-1.49a22.05 22.05 0 0 1 31.1 0l-1.5 1.49z" fill="#887eff"></path><path d="M92.02 10.69a29.47 29.47 0 0 0-41.55 0l-1.5-1.49A31.33 31.33 0 0 1 71.26 0c8.4 0 16.32 3.27 22.27 9.2l-1.5 1.49z" fill="#887eff"></path><path d="M9.69 173.96a3.34 3.34 0 1 0 0-6.69 3.34 3.34 0 0 0 0 6.69z" fill="#fff"></path><path d="M9.69 175.01a4.4 4.4 0 0 1-4.4-4.39 4.4 4.4 0 0 1 8.8 0 4.4 4.4 0 0 1-4.4 4.4zm0-6.67a2.29 2.29 0 0 0-2.3 2.28 2.29 2.29 0 0 0 4.59 0 2.29 2.29 0 0 0-2.3-2.28z" fill="#887eff"></path><path d="M28.35 190.47a3.34 3.34 0 1 0 .01-6.69 3.34 3.34 0 0 0 0 6.69z" fill="#fff"></path><path d="M28.35 191.52a4.4 4.4 0 0 1-4.4-4.39 4.4 4.4 0 0 1 8.8 0 4.4 4.4 0 0 1-4.4 4.4zm0-6.67a2.3 2.3 0 0 0-2.29 2.28 2.3 2.3 0 0 0 4.58 0 2.3 2.3 0 0 0-2.29-2.28z" fill="#887eff"></path></svg>