<svg width="61" height="56" viewBox="0 0 61 56" fill="none" xmlns="http://www.w3.org/2000/svg"><path d="M2 21.45l6.7-3.91 3.9 6.7" stroke="#300D4F" stroke-width="4" stroke-linecap="round" stroke-linejoin="round"></path><path d="M32.78 42.77v-2.84" stroke="#300D4F" stroke-width="2" stroke-linecap="round" stroke-linejoin="round"></path><path d="M40.23 40.75L38.8 38.3" stroke="#300D4F" stroke-width="2" stroke-linecap="round" stroke-linejoin="round"></path><path d="M45.52 35.45l-2.44-1.43" stroke="#300D4F" stroke-width="2" stroke-linecap="round" stroke-linejoin="round"></path><path d="M47.54 28h-2.83" stroke="#300D4F" stroke-width="2" stroke-linecap="round" stroke-linejoin="round"></path><path d="M45.52 20.55l-2.44 1.43" stroke="#300D4F" stroke-width="2" stroke-linecap="round" stroke-linejoin="round"></path><path d="M40.23 15.25L38.8 17.7" stroke="#300D4F" stroke-width="2" stroke-linecap="round" stroke-linejoin="round"></path><path d="M32.78 13.23v2.84" stroke="#300D4F" stroke-width="2" stroke-linecap="round" stroke-linejoin="round"></path><path d="M25.32 15.25l1.43 2.45" stroke="#300D4F" stroke-width="2" stroke-linecap="round" stroke-linejoin="round"></path><path d="M20.03 20.55l2.44 1.43" stroke="#300D4F" stroke-width="2" stroke-linecap="round" stroke-linejoin="round"></path><path d="M18 28h2.84" stroke="#300D4F" stroke-width="2" stroke-linecap="round" stroke-linejoin="round"></path><path d="M20.03 35.45l2.44-1.43" stroke="#300D4F" stroke-width="2" stroke-linecap="round" stroke-linejoin="round"></path><path d="M25.32 40.75l1.43-2.45" stroke="#300D4F" stroke-width="2" stroke-linecap="round" stroke-linejoin="round"></path><path d="M32.78 42.77v-2.84" stroke="#300D4F" stroke-width="2" stroke-linecap="round" stroke-linejoin="round"></path><path d="M12.71 11.46a26.2 26.2 0 0 1 12.34-8.3A25.53 25.53 0 0 1 32.78 2 26.24 26.24 0 0 1 42.9 4.04a25.8 25.8 0 0 1 9.94 7.42 26.18 26.18 0 0 1 5.4 11.3 26.06 26.06 0 0 1-20.22 30.71 25.78 25.78 0 0 1-7.9.4 25.78 25.78 0 0 1-15.73-7.49 26.2 26.2 0 0 1-6.44-10.65A25.77 25.77 0 0 1 6.9 25.34a26.06 26.06 0 0 1 1.04-5.07" stroke="#300D4F" stroke-width="4" stroke-linecap="round" stroke-linejoin="round"></path></svg>