<svg xmlns="http://www.w3.org/2000/svg" width="100%" viewBox="0 0 286 107"><path fill-rule="evenodd" clip-rule="evenodd" d="M229.71 43.9323C225.582 43.9323 223.311 46.0022 221.66 48.2791V44.3462H215.674V69.3924H221.66V55.1099C221.66 51.177 224.137 48.9001 227.44 48.9001C230.949 48.9001 233.013 51.177 233.013 55.1099V69.3924H238.999V53.4539C238.999 47.8651 235.696 43.9323 229.71 43.9323ZM174.39 69.5994H180.376V44.5532H174.39V69.5994ZM190.284 57.1798C190.284 61.5267 193.587 65.2525 198.128 65.2525C202.876 65.2525 205.972 61.7337 206.178 57.1798C206.178 52.833 202.876 49.1071 198.128 49.1071C193.38 49.1071 190.284 52.833 190.284 57.1798ZM198.128 43.9323C190.078 43.9323 184.298 49.9351 184.298 57.1798C184.298 64.4246 190.078 70.2204 198.128 70.2204C206.178 70.2204 212.165 64.2176 212.165 57.1798C211.958 49.9351 206.178 43.9323 198.128 43.9323ZM117.212 44.5532L124.23 62.9756L131.454 44.5532H137.647L126.913 69.8064H121.546L110.812 44.5532H117.212ZM162.211 54.9029C161.848 54.7815 161.49 54.6658 161.142 54.5532C158.522 53.7052 156.431 53.0285 156.431 51.384C156.431 49.9351 157.67 48.9001 160.147 48.9001C161.179 48.9001 162.624 49.1071 163.862 49.5211C163.95 49.5211 164 49.5211 164.045 49.5369C164.106 49.5584 164.156 49.609 164.275 49.7281C165.307 49.9351 167.784 50.349 169.849 47.2441C167.165 45.3812 163.45 44.3462 160.353 44.3462C155.193 44.3462 151.064 47.2441 151.064 52.005C151.064 56.7658 155.399 58.4218 159.115 59.4567C162.211 60.2847 164.894 61.1127 164.894 62.9756C164.894 64.6316 163.45 65.6665 160.766 65.6665C159.115 65.6665 157.257 65.2525 155.399 64.4246C154.78 64.2176 152.096 63.3896 149.619 66.4945C152.922 68.9784 156.844 70.2204 160.56 70.2204C165.927 70.2204 170.261 67.5295 170.261 62.3546C170.468 57.5938 166.133 55.9379 162.211 54.9029ZM146.523 69.5994H140.537V44.5532H146.523V69.5994Z" fill="#000"></path><path fill-rule="evenodd" clip-rule="evenodd" d="M47 82.875V25.125C47 22.8563 48.8577 21 51.1283 21H108.924C111.195 21 113.052 22.8563 113.052 25.125V82.875C113.052 85.1438 111.195 87 108.924 87H51.1283C48.8577 87 47 85.1438 47 82.875ZM67.8526 33.3051C70.1195 33.3051 71.9743 35.1716 71.9743 37.4528C71.9743 39.7341 70.1195 41.6006 67.8526 41.6006C65.5857 41.6006 63.7309 39.7341 63.7309 37.4528C63.7309 35.1716 65.5857 33.3051 67.8526 33.3051ZM61.8762 61.7174C61.6701 62.7543 61.464 63.7912 61.464 64.6208C61.464 67.939 63.3188 70.2203 67.0283 70.2203C70.1195 70.2203 72.5925 68.3538 74.4473 65.243L73.4168 70.0129H79.5993L83.1028 55.0809C83.9271 51.3479 85.7818 49.274 88.2548 49.274C90.3157 49.274 91.5522 50.5183 91.5522 52.7996C91.5522 53.4218 91.5522 54.044 91.3461 54.8735L89.4913 61.7174C89.4613 61.8684 89.4313 62.0151 89.4019 62.1586C89.2296 63.0001 89.0792 63.7352 89.0792 64.6208C89.0792 67.939 90.9339 70.2203 94.6434 70.2203C97.9408 70.2203 100.414 67.939 101.856 62.7543L99.3833 61.7174C98.1468 65.243 97.1164 65.8651 96.2921 65.8651C95.4678 65.8651 95.0556 65.243 95.0556 64.206C95.0556 63.9173 95.1 63.6732 95.1475 63.4116C95.2025 63.1095 95.2617 62.7841 95.2617 62.3395L97.1164 55.7031C97.5286 54.044 97.7347 52.7996 97.7347 51.5553C97.7347 46.578 94.8495 43.8819 91.3461 43.8819C88.0488 43.8819 84.7514 46.9927 83.1028 50.1036L84.3393 44.2967H74.8594L73.6229 49.4814H78.1568L75.4777 60.8878C73.4168 65.8651 69.5013 65.8651 68.883 65.8651C68.0587 65.6577 67.6465 65.4504 67.6465 64.206C67.6465 63.7791 67.7435 63.2546 67.871 62.5654C67.9293 62.2502 67.994 61.9005 68.0587 61.51L72.1803 44.2967H61.6701L60.4336 49.4814H64.7613L61.8762 61.7174Z" fill="#000"></path></svg>